<svg xmlns="http://www.w3.org/2000/svg" width="364" height="48" viewBox="0 0 364 48">
  <g fill="#626B77">
    <path d="M112.374694,19.6994015 C108.96016,20.3924765 106.390083,23.4113423 106.390083,27.030493 L106.390083,27.030607 C106.390083,28.9061271 107.080308,30.6204617 108.220576,31.9334283 L104.635965,42.4907381 L95.0994585,42.4907381 L81.5515531,2.51020804 C81.3747506,1.98848675 81.6543745,1.42221716 82.1761186,1.24542605 C82.2791679,1.21048732 82.3873468,1.19265888 82.4962097,1.19265888 L88.4740952,1.19265888 C89.3444286,1.19265888 90.1143346,1.7569564 90.3764035,2.58693645 L97.6951838,25.7681391 C98.1277857,27.2182388 98.5745227,28.908293 99.0353947,30.8386435 C99.4961528,32.76888 99.7830721,34.1105728 99.8959248,34.8639498 C100.102821,33.1313765 100.808207,30.0995155 102.011969,25.7681391 L109.385238,2.58296951 C109.648561,1.75499573 110.417441,1.19265888 111.286292,1.19265888 L117.266458,1.19265888 C117.817042,1.19265888 118.263893,1.63923625 118.263893,2.19009404 C118.263893,2.29917355 118.245654,2.40751211 118.211456,2.5107894 L112.374694,19.6994015 Z M34.2242234,21.446224 C34.2242234,28.2445141 32.2914791,33.4514677 28.4261043,37.0671986 C24.5607296,40.6829296 18.9789684,42.4907381 11.6808207,42.4907381 L0.997435167,42.4907381 C0.446567113,42.4907381 0,42.0442291 0,41.4933029 L0,2.19009404 C0,1.63923625 0.446567113,1.19265888 0.997435167,1.19265888 L12.9504702,1.19265888 C19.6843545,1.19265888 24.9134226,2.9722542 28.6376746,6.53147905 C32.3620405,10.0907039 34.2242234,15.062297 34.2242234,21.446224 Z M25.139128,21.6722713 C25.139128,12.8023938 21.2267883,8.36756911 13.4018809,8.36756911 L8.74649188,8.36756911 L8.74649188,35.2593901 L12.4990596,35.2593901 C20.9258478,35.2593901 25.139128,30.7303505 25.139128,21.6722713 Z M53.3299516,41.0805358 L43.830721,10.0906811 L43.5768595,10.0906811 C43.9342263,16.6817897 44.1128527,21.0790539 44.1128527,23.2823027 L44.1128527,41.4933029 C44.1128527,42.0442291 43.6663437,42.4907381 43.1154175,42.4907381 L37.2949558,42.4907381 C36.7440296,42.4907381 36.2975207,42.0442291 36.2975207,41.4933029 L36.2975207,2.19009404 C36.2975207,1.63923625 36.7440296,1.19265888 37.2949558,1.19265888 L46.7326304,1.19265888 C47.6074095,1.19265888 48.3801653,1.76261043 48.6385865,2.5983927 L57.9662582,32.7735537 L58.1355372,32.7735537 L68.0398974,2.56601881 C68.3085779,1.74666287 69.0732402,1.19265888 69.9354802,1.19265888 L79.399373,1.19265888 C79.9501852,1.19265888 80.3968082,1.63923625 80.3968082,2.19009404 L80.3968082,41.4933029 C80.3968082,42.0442291 79.9501852,42.4907381 79.399373,42.4907381 L73.2402394,42.4907381 C72.6893132,42.4907381 72.2428042,42.0442291 72.2428042,41.4933029 L72.2428042,22.9434027 C72.2428042,22.0206327 72.2568253,20.9566258 72.2850955,19.7513822 C72.3132516,18.5461385 72.4402394,15.3447706 72.6659447,10.1471758 L72.4120832,10.1471758 L62.2262753,41.1190653 C61.9571388,41.9376461 61.1928185,42.4907381 60.3312625,42.4907381 L55.2372756,42.4907381 C54.3606726,42.4907381 53.5868909,41.9186093 53.3299516,41.0805358 Z"/>
    <path d="M110.103733 26.9828441L110.103733 26.9827301C110.103733 25.0326589 111.684583 23.4518096 113.634654 23.4518096L121.723568 23.4518096C123.673981 23.4518096 125.255058 25.0326589 125.255058 26.9827301L125.255058 26.9828441C125.255058 28.9329154 123.673981 30.5137646 121.723568 30.5137646L113.634654 30.5137646C111.684583 30.5137646 110.103733 28.9329154 110.103733 26.9828441zM128.835566 41.5830151C128.068396 41.5830151 127.502992 40.9978911 127.137076 39.8276432 126.7723 38.6572813 126.589912 37.1760616 126.589912 35.383984 126.589912 32.092448 127.621545 27.6215446 129.68481 21.9710459 131.749216 16.3205472 134.114563 11.3009632 136.780849 6.91222571 139.448276 2.52348817 141.620975.329153605 143.301225.329153605 144.031918.329153605 144.607581.731448276 145.028213 1.53605016 145.447706 2.34065546 145.657452 3.23667142 145.657452 4.22414363 145.657452 5.90649188 145.046452 8.15567968 143.822172 10.9717868 142.599031 13.7878598 140.991736 16.5033913 139.000285 19.1183813 137.009974 21.7332573 134.954688 23.6624679 132.835566 24.9058991 131.594186 28.1975492 130.972927 31.3061271 130.972927 34.2319749L131.027643 35.383984C131.100598 35.2743232 131.264748 34.8720433 131.521231 34.1771445 132.251924 32.2752921 133.019094 30.5563978 133.822742 29.0203477 134.626389 27.4842975 135.730977 26.0489028 137.137646 24.7139356 138.543175 23.3790824 140.177828 22.7115417 142.041607 22.7115417 143.721858 22.7115417 144.944999 23.2510687 145.712169 24.3298946 146.479339 25.4088344 146.863494 26.6797378 146.863494 28.1426047 146.863494 28.9837561 146.754061 29.7700769 146.534055 30.5015674 146.31519 31.2330579 145.986891 32.1656312 145.548019 33.2994015 145.475064 33.445654 145.338273 33.783984 145.137646 34.3142776 144.935879 34.8445711 144.789969 35.3200342 144.698775 35.7405529 144.607581 36.1611855 144.561983 36.5361072 144.561983 36.8652038 144.561983 38.0355657 145.055571 38.6206897 146.041607 38.6206897 146.845255 38.6206897 147.794813 38.2184098 148.890282 37.4138501 149.986891 36.6091764 151.064121 35.5303505 152.123112 34.1771445 153.183243 32.8239384 154.096324 31.3610715 154.863494 29.7884298L155.740097 30.7210031C154.388145 33.7199202 152.753491 36.1520661 150.836136 38.0172129 148.91764 39.8824736 146.863494 40.815047 144.671416 40.815047 143.319464 40.815047 142.269592 40.4584782 141.520661 39.7453406 140.77173 39.0320889 140.397834 38.1086349 140.397834 36.9748646 140.397834 36.2434882 140.653178 34.9268738 141.165004 33.0251354 141.712169 31.2330579 141.986891 29.8980906 141.986891 29.0203477 141.986891 27.4842975 141.329154 26.7163294 140.013679 26.7163294 138.699345 26.7163294 137.593616 27.4019949 136.698775 28.7735537 135.803933 30.1449986 134.790539 32.1656312 133.657452 34.8354517 132.744372 37.1029923 131.940724 38.7944144 131.246509 39.9098319 130.552294 41.0253634 129.748646 41.5830151 128.835566 41.5830151zM133.986891 21.3949273C135.484753 20.0418353 136.92676 18.2863494 138.31519 16.1285836 139.703619 13.9707039 140.835566 11.877002 141.712169 9.84718153 142.589912 7.81738387 143.027643 6.36363636 143.027643 5.48589342 142.589912 5.66876033 141.804503 6.55563408 140.671416 8.14654887 139.53947 9.73746366 138.351667 11.7306355 137.110288 14.1261898 135.867769 16.5217441 134.827016 18.9446566 133.986891 21.3949273zM156.452551 42.076831C155.173554 42.076831 154.105443 41.6561983 153.247079 40.815047 152.388715 39.9738957 151.958963 38.785295 151.958963 37.2492448 151.958963 35.1279567 152.735252 32.7507552 154.287831 30.1175264 155.84041 27.4842975 157.822742 25.2534625 160.233685 23.4247934 162.644628 21.5961243 165.055571 20.6817897 167.466515 20.6817897 169.07381 20.6817897 170.415503 21.0933029 171.493873 21.9161015 172.571103 22.739014 173.110288 23.7904816 173.110288 25.0705044 173.110288 26.7529211 172.068396 27.630664 169.986891 27.7037333 171.301225 28.1060131 171.958963 28.6546594 171.958963 29.3495583 171.958963 29.6055856 171.831291 29.9895127 171.575948 30.5015674 171.319464 31.0136221 171.027643 31.5439156 170.699345 32.092448 170.114563 33.0433742 169.657452 33.8754061 169.329154 34.5885437 169.000855 35.3016814 168.835566 35.969222 168.835566 36.5909376 168.835566 37.1394699 168.972357 37.6058136 169.247079 37.9898547 169.520661 38.3737817 169.932174 38.5658592 170.479339 38.5658592 171.502992 38.5658592 172.808207 37.8527216 174.397264 36.4263323 175.986321 34.999943 177.529781 32.8605301 179.027643 30.0078655L180.068396 31.0502137C178.717583 34.0857224 177.037333 36.5268738 175.027643 38.3737817 173.019094 40.2208036 170.991166 41.1442576 168.944999 41.1442576 167.484753 41.1442576 166.360787 40.6595611 165.575378 39.6903961 164.789969 38.7212311 164.397834 37.614933 164.397834 36.3715019 162.754061 38.3464235 161.347392 39.7910516 160.177828 40.7053861 159.009404 41.6196067 157.766885 42.076831 156.452551 42.076831zM157.602736 39.2789969C158.881733 39.2789969 160.370476 38.3555429 162.068966 36.5086349 163.767455 34.661727 165.69393 32.2570533 167.84953 29.2946139L168.944999 27.8135081C169.055571 27.630664 169.201482 27.5392419 169.38387 27.5392419L169.602736 27.5940724C169.785124 27.0088344 169.877458 26.3322884 169.877458 25.5643203 169.877458 23.6624679 169.110288 22.7115417 167.575948 22.7115417 165.968652 22.7115417 164.288401 23.5710459 162.534055 25.2899402 160.780849 27.0089484 159.310345 29.0569393 158.123682 31.4341408 156.935879 33.8114563 156.343118 35.8412083 156.343118 37.523511 156.343118 38.1452266 156.443431 38.5932174 156.644058 38.8675976 156.844685 39.1418638 157.165004 39.2789969 157.602736 39.2789969zM196.177828 40.5956113C194.790539 40.5956113 193.712169 40.2481619 192.944999 39.553263 192.177828 38.8583642 191.794813 37.9441436 191.794813 36.8103733 191.794813 36.3349102 191.876888 35.7862639 192.041037 35.1645483 192.206327 34.5428327 192.379595 33.9211171 192.561983 33.2994015 193.07381 31.6169849 193.329154 30.3735537 193.329154 29.568994 193.329154 28.8375036 193.146765 28.2980906 192.780849 27.9506412 192.416073 27.6031918 191.958963 27.4294671 191.411798 27.4294671 189.475064 27.4294671 187.521231 28.64554 185.548019 31.077572 183.575948 33.5097179 181.456825 36.5909376 179.191793 40.3213451 177.620975 40.3213451 176.434312 39.7910516 175.630664 38.7303505L176.123112 37.3589057C178.278712 32.1290396 179.355942 28.2523796 179.355942 25.7288116 179.648903 25.399715 180.068396 25.0979766 180.6167 24.8237105 181.165004 24.5493303 181.69393 24.4121972 182.205757 24.4121972 182.827016 24.4121972 183.301225 24.5585637 183.630664 24.8510687 183.958963 25.1436877 184.123112 25.5459675 184.123112 26.0580222 184.123112 27.045426 183.813052 28.6728983 183.191793 30.9404389 184.835566 28.7460815 186.543175 26.954004 188.315759 25.5643203 190.087204 24.1745227 191.831291 23.4796238 193.548019 23.4796238 195.009404 23.4796238 196.141351 23.9824451 196.944999 24.9882018 197.748646 25.9939584 198.15104 27.1917925 198.15104 28.5814762 198.15104 29.3861499 198.050727 30.154118 197.8501 30.8856084 197.648333 31.6169849 197.347392 32.4398974 196.944999 33.354232 196.324879 34.8902821 196.013679 36.0422913 196.013679 36.8103733 196.013679 37.3589057 196.141351 37.7611855 196.397834 38.0172129 196.653178 38.2732402 196.963237 38.4012539 197.329154 38.4012539 198.534055 38.4012539 199.84041 37.569222 201.247079 35.9051582 202.653748 34.2410943 203.922485 32.2754061 205.055571 30.0078655L205.986891 30.7758336C204.671416 33.8114563 203.219151 36.2068966 201.630094 37.9623824 200.041037 39.7178683 198.223995 40.5956113 196.177828 40.5956113zM207.411798 41.1442576C206.205757 41.1442576 205.128527 40.723625 204.177828 39.8824736 203.22827 39.0413223 202.754061 37.81613 202.754061 36.2068966 202.754061 34.1587917 203.53947 31.7907096 205.110288 29.1026503 206.681106 26.4145911 208.671416 24.1196922 211.08236 22.2178398 213.493303 20.3161015 215.904246 19.3651753 218.31519 19.3651753 220.104873 19.3651753 221.000855 19.9504132 221.000855 21.1206612 221.000855 21.7058991 220.780849 22.1264178 220.343118 22.3824451 220.050157 21.9801653 219.411798 21.7789684 218.424622 21.7789684 216.561983 21.7789684 214.790539 22.5927615 213.110288 24.2202337 211.430037 25.8477059 210.068966 27.7585637 209.028213 29.9530351 207.986321 32.1473924 207.466515 33.9759476 207.466515 35.4389285 207.466515 36.1703049 207.612425 36.7371901 207.904246 37.1394699 208.197207 37.5417498 208.634939 37.7429467 209.219721 37.7429467 210.242234 37.7429467 211.439156 37.1485893 212.808207 35.9599886 214.178398 34.7713879 215.585067 33.0799658 217.028213 30.8856084 218.470219 28.6912511 219.758336 26.1312055 220.890282 23.2053577 223.740097 15.8907951 226.15104 10.1946423 228.123112 6.11677401 230.096324 2.03890567 231.813052 0 233.274437 0 233.675691 0 234.032488.155432317 234.342548.46630151 234.653748.777169564 234.808777 1.17031633 234.808777 1.64576803 234.808777 2.26750641 234.524936 3.218387 233.959533 4.4984326 233.392989 5.7784782 232.434312 7.78995725 231.08236 10.5329154 228.416073 15.9457395 226.296951 20.6726703 224.726133 24.7139356 223.155315 28.7552009 222.369906 32.4216586 222.369906 35.7131946 222.369906 36.5909376 222.451981 37.185181 222.61727 37.4960388 222.781419 37.8068966 223.064121 37.9623824 223.466515 37.9623824 224.707894 37.9623824 226.132801 37.230892 227.740097 35.7680251 229.347392 34.3051582 230.754061 32.3302365 231.958963 29.8432602L233.000855 30.7210031C231.794813 33.7199202 230.132801 36.1703049 228.013679 38.0721573 225.895697 39.9738957 223.794813 40.9247079 221.712169 40.9247079 220.288401 40.9247079 219.264748 40.4859504 218.644628 39.6082075 218.023368 38.7303505 217.712169 37.5783414 217.712169 36.1520661 217.712169 35.3109148 217.859219 34.122314 218.15104 32.5862639 216.361357 35.1829011 214.515816 37.2583642 212.6167 38.8126532 210.717583 40.3670561 208.982616 41.1442576 207.411798 41.1442576zM236.288401 43.5031063C234.242234 43.5031063 232.671416 42.8631519 231.575948 41.5830151 230.479339 40.3029923 229.932174 38.5110288 229.932174 36.2068966 229.932174 32.769108 231.027643 28.1700769 233.219721 22.4099174 235.411798 16.6496438 237.913936 11.5295526 240.726133 7.04937019 243.53947 2.5691992 245.748646.329153605 247.355942.329153605 248.050157.329153605 248.589342.713162724 248.972357 1.48119692 249.356512 2.249222 249.566258 3.12695355 249.602736 4.11442576 249.602736 5.86991166 249.000855 8.16482189 247.794813 10.9992135 246.589912 13.8335708 245.009974 16.5491023 243.055001 19.1457395 241.101168 21.7424907 239.045882 23.6624679 236.890282 24.9058991 236.379595 25.8568253 235.84041 27.4203477 235.273867 29.5963522 234.708464 31.7724708 234.424622 33.8662867 234.424622 35.877686 234.424622 37.4869194 234.653748 38.7760616 235.109718 39.7453406 235.566828 40.7145056 236.288401 41.1990881 237.274437 41.1990881 238.223995 41.1990881 239.246509 40.769336 240.343118 39.9098319 241.438586 39.0504417 242.333428 37.9806213 243.027643 36.7005985 241.712169 35.969222 240.698775 34.954346 239.986321 33.6559704 239.273867 32.3575948 238.91821 30.9586777 238.91821 29.4592192 238.91821 27.7037333 239.393559 26.2683386 240.343118 25.1528071 241.292676 24.0373896 242.479339 23.4796238 243.904246 23.4796238 245.146765 23.4796238 246.132801 23.9459675 246.863494 24.8785409 247.594186 25.8111143 247.958963 27.1734397 247.958963 28.9655172 247.958963 31.1964662 247.411798 33.5004845 246.31519 35.877686L247.301225 35.9326304C248.982616 35.9326304 250.369906 35.3473924 251.466515 34.1771445 252.561983 33.0067826 253.529781 31.5621545 254.369906 29.8432602L255.191793 30.9952693C254.205757 33.2628099 253.046452 34.9359932 251.712739 36.014933 250.379025 37.0937589 248.671416 37.6331718 246.589912 37.6331718 246.078085 37.6331718 245.69393 37.614933 245.438586 37.5783414 244.30664 39.3704189 242.972927 40.8059276 241.438586 41.8847535 239.904246 42.9636934 238.187518 43.5031063 236.288401 43.5031063zM237.932174 21.4498718C239.430037 20.0966657 240.872043 18.3320604 242.260473 16.1559419 243.648903 13.9798233 244.780849 11.877002 245.657452 9.84718153 246.534055 7.81738387 246.991166 6.36363636 247.027643 5.48589342 246.552294 5.66876033 245.730408 6.5830607 244.561983 8.22884013 243.393559 9.87461955 242.187518 11.8952408 240.944999 14.2907951 239.703619 16.6862354 238.699345 19.0725563 237.932174 21.4498718zM243.958963 34.8902821C244.6167 33.3908236 244.944999 31.8364206 244.944999 30.2273012 244.944999 28.9837561 244.799088 28.0329439 244.507267 27.3746366 244.215446 26.7163294 243.831291 26.3871188 243.355942 26.3871188 242.881733 26.3871188 242.470219 26.7163294 242.123682 27.3746366 241.776005 28.0329439 241.602736 28.8192647 241.602736 29.7334853 241.602736 30.6478199 241.795383 31.5896267 242.178398 32.5587917 242.561414 33.5279567 243.155315 34.3051582 243.958963 34.8902821zM256.561983 41.2539185C255.064121 41.2539185 253.977771 40.7602166 253.301795 39.7726988 252.625819 38.785295 252.288401 37.5601026 252.288401 36.0972357 252.288401 34.5610715 252.607581 32.9701909 253.247079 31.3244799 253.886577 29.6786549 254.717583 28.30721 255.740097 27.2100313 256.76261 26.1128527 257.804503 25.5643203 258.863494 25.5643203 259.301225 25.5643203 259.867769 25.7105728 260.561983 26.0031918 260.780849 24.3207751 261.374751 22.9310915 262.342548 21.8337988 263.310345 20.7366201 264.671416 20.1880878 266.424622 20.1880878 267.886007 20.1880878 268.963237 20.599487 269.657452 21.4223995 270.351667 22.2453121 270.699345 23.3150185 270.699345 24.6316329 270.699345 25.9116557 270.360787 27.3746366 269.68481 29.0203477 269.009974 30.6661727 268.141351 32.3118837 267.08236 33.9577087 267.521231 34.1771445 268.031918 34.2868054 268.6167 34.2868054 269.639213 34.2868054 270.735822 33.9485893 271.904246 33.2719293 273.07381 32.5953833 273.968652 31.5621545 274.589912 30.1724708L275.575948 30.8856084C274.808777 32.6410943 273.777144 33.9759476 272.479909 34.8902821 271.182673 35.8046167 269.84098 36.261727 268.452551 36.261727 267.612425 36.261727 266.699345 36.0972357 265.712169 35.7680251 264.361357 37.3772585 262.881733 38.6938729 261.274437 39.7178683 259.667142 40.7418638 258.096324 41.2539185 256.561983 41.2539185zM265.219721 32.8055856C266.132801 31.4524936 266.890852 30.0444571 267.493873 28.5814762 268.095754 27.1186093 268.397834 25.8019949 268.397834 24.6316329 268.397834 23.0225135 267.886007 22.2178398 266.863494 22.2178398 266.388145 22.2178398 265.895697 22.4556284 265.38387 22.9309775 264.872043 23.4064406 264.452551 24.0373896 264.123112 24.8237105 263.794813 25.6100313 263.630664 26.4785409 263.630664 27.4294671 263.630664 28.2706184 263.776575 29.230664 264.068396 30.3096039 264.361357 31.3884298 264.744372 32.2204617 265.219721 32.8055856zM258.534055 38.4560844C259.191793 38.4560844 259.99544 38.0903961 260.944999 37.3589057 261.895697 36.6275292 262.845255 35.6948418 263.794813 34.5611855 261.712169 32.7325164 260.6167 30.0444571 260.507267 26.4968937 260.068396 26.7163294 259.53947 27.3928755 258.91821 28.5266458 258.296951 29.6604161 257.766885 30.9222001 257.329154 32.3118837 256.890282 33.7016814 256.671416 34.9085209 256.671416 35.9326304 256.671416 37.614933 257.292676 38.4560844 258.534055 38.4560844zM276.944999 41.2539185C275.448276 41.2539185 274.360787 40.7602166 273.68481 39.7726988 273.009974 38.785295 272.671416 37.5601026 272.671416 36.0972357 272.671416 34.5610715 272.991736 32.9701909 273.630094 31.3244799 274.269592 29.6786549 275.100598 28.30721 276.123112 27.2100313 277.146765 26.1128527 278.187518 25.5643203 279.246509 25.5643203 279.68538 25.5643203 280.251924 25.7105728 280.944999 26.0031918 281.165004 24.3207751 281.757766 22.9310915 282.726703 21.8337988 283.6945 20.7366201 285.055571 20.1880878 286.808777 20.1880878 288.270162 20.1880878 289.347392 20.599487 290.041607 21.4223995 290.735822 22.2453121 291.08236 23.3150185 291.08236 24.6316329 291.08236 25.9116557 290.744942 27.3746366 290.068966 29.0203477 289.392989 30.6661727 288.525506 32.3118837 287.466515 33.9577087 287.904246 34.1771445 288.416073 34.2868054 289.000855 34.2868054 290.023368 34.2868054 291.118837 33.9485893 292.288401 33.2719293 293.456825 32.5953833 294.351667 31.5621545 294.972927 30.1724708L295.958963 30.8856084C295.191793 32.6410943 294.16016 33.9759476 292.862924 34.8902821 291.566828 35.8046167 290.223995 36.261727 288.835566 36.261727 287.99544 36.261727 287.08236 36.0972357 286.096324 35.7680251 284.744372 37.3772585 283.264748 38.6938729 281.657452 39.7178683 280.050157 40.7418638 278.479339 41.2539185 276.944999 41.2539185zM285.602736 32.8055856C286.515816 31.4524936 287.273867 30.0444571 287.876888 28.5814762 288.479909 27.1186093 288.780849 25.8019949 288.780849 24.6316329 288.780849 23.0225135 288.270162 22.2178398 287.246509 22.2178398 286.7723 22.2178398 286.278712 22.4556284 285.766885 22.9309775 285.256198 23.4064406 284.835566 24.0373896 284.507267 24.8237105 284.178968 25.6100313 284.013679 26.4785409 284.013679 27.4294671 284.013679 28.2706184 284.15959 29.230664 284.452551 30.3096039 284.744372 31.3884298 285.128527 32.2204617 285.602736 32.8055856zM278.91821 38.4560844C279.575948 38.4560844 280.379595 38.0903961 281.329154 37.3589057 282.278712 36.6275292 283.22827 35.6948418 284.178968 34.5611855 282.096324 32.7325164 281.000855 30.0444571 280.890282 26.4968937 280.452551 26.7163294 279.922485 27.3928755 279.301225 28.5266458 278.681106 29.6604161 278.15104 30.9222001 277.712169 32.3118837 277.274437 33.7016814 277.055571 34.9085209 277.055571 35.9326304 277.055571 37.614933 277.675691 38.4560844 278.91821 38.4560844zM311.08236 41.5830151C309.657452 41.5830151 308.452551 41.0070105 307.466515 39.8550014 306.479339 38.7029923 305.748646 37.322314 305.274437 35.7131946 304.799088 34.1039612 304.561983 32.6593331 304.561983 31.3793103 309.274437 30.3187233 311.630664 28.6912511 311.630664 26.4968937 311.630664 25.8385865 311.420918 25.308293 311.000285 24.9058991 310.579652 24.5036193 309.986891 24.3025363 309.219721 24.3025363 306.991166 24.3025363 305.028213 25.7196922 303.328584 28.554118 301.630094 31.3884298 300.086634 34.6708464 298.699345 38.4012539 298.296951 39.4984326 297.913936 40.2390425 297.548019 40.6230835 297.183243 41.0070105 296.653178 41.1990881 295.958963 41.1990881 295.374181 41.1990881 294.872613 40.9430607 294.451981 40.431006 294.032488 39.9190653 293.822742 38.8035338 293.822742 37.0846395 293.822742 32.8787689 294.899972 27.877458 297.055571 22.0807068 299.210031 16.2839555 301.675691 11.2095298 304.452551 6.85736107 307.22827 2.50520376 309.347392.329153605 310.808777.329153605 311.430037.329153605 311.949843.713162724 312.370476 1.48119692 312.789969 2.249222 313.000855 3.20010259 313.000855 4.3338615 313.000855 5.97962952 312.516386 7.8722485 311.548589 10.0117526 310.579652 12.1512682 309.22884 14.2084924 307.493873 16.1834141 305.757766 18.1583357 303.813052 19.7858079 301.657452 21.0658307 300.707894 23.3333713 299.940724 25.6282702 299.355942 27.9506412 298.7723 30.2730123 298.406384 32.385067 298.260473 34.2868054 302.205757 25.2167569 306.260473 20.6817897 310.424622 20.6817897 311.886007 20.6817897 313.165004 21.2029638 314.260473 22.2453121 315.355942 23.2876603 315.904246 24.5585637 315.904246 26.0580222 315.904246 27.4112283 315.448276 28.5723568 314.534055 29.5415218 313.620975 30.5106868 312.543745 31.2421773 311.301225 31.7358792 310.059846 32.2295811 308.963237 32.4947278 308.013679 32.5313195 308.379595 34.2137361 308.881163 35.7039612 309.520661 37.0023368 310.16016 38.3007125 311.100598 38.9499003 312.343118 38.9499003 313.657452 38.9499003 315.045882 38.0812767 316.507267 36.3440296 317.968652 34.6067826 319.301225 32.4033058 320.507267 29.7334853L321.274437 30.6661727C320.251924 33.6284981 318.790539 36.1885437 316.890282 38.3464235 314.991166 40.5041892 313.055571 41.5830151 311.08236 41.5830151zM303.246509 17.3354232C305.037333 15.7627814 306.671986 13.8701624 308.15047 11.6575663 309.630094 9.44486748 310.388145 7.3876774 310.424622 5.48589342 309.84098 5.74189798 308.835566 7.02193217 307.411798 9.32601881 305.986891 11.630094 304.598461 14.2999145 303.246509 17.3354232zM322.739242 39.7976632C322.30037 39.7976632 321.972072 39.6829866 321.752066 39.4535195 321.5332 39.2241664 321.423767 38.9598176 321.423767 38.6605871 321.423767 38.3214591 321.638074 37.9724138 322.066686 37.6133371 322.494158 37.2541465 322.907951 37.0747221 323.306925 37.0747221 323.565688 37.0747221 323.794813 37.1495013 323.9943 37.2990596 324.193787 37.4487318 324.292961 37.6831006 324.292961 38.0022799 324.292961 38.1818182 324.227985 38.4161869 324.099174 38.7055001 323.969222 38.9946993 323.790254 39.2490168 323.561129 39.4684526 323.332003 39.6878883 323.057281 39.7976632 322.739242 39.7976632zM330.180678 40.4559704C329.304075 40.4559704 328.637219 40.1916215 328.178968 39.6630379 327.719578 39.1343403 327.490453 38.4511827 327.490453 37.6133371 327.490453 36.7953263 327.664862 35.9376461 328.013679 35.0399544 328.362496 34.1421488 328.816187 33.3891137 329.373611 32.7807353 329.932174 32.1722428 330.510117 31.8679966 331.107438 31.8679966 331.286406 31.8679966 331.585067 31.9477914 332.00456 32.107495 332.123112 31.1897407 332.452551 30.4318039 332.990596 29.8332288 333.528641 29.2347677 334.235395 28.9356512 335.111998 28.9356512 336.686235 28.9356512 337.473924 29.7435167 337.473924 31.3593616 337.473924 32.1174124 337.308635 32.9353092 336.980336 33.8130522 336.652038 34.6907951 336.198347 35.5585067 335.620405 36.4164149 335.979481 36.5361072 336.267883 36.5958393 336.486748 36.5958393 337.443146 36.5958393 338.250214 36.276774 338.907951 35.6384155 339.565688 34.999943 340.093474 34.2418923 340.492448 33.3641493 340.890282 32.4864064 341.278997 31.4391565 341.657452 30.2222856 341.478484 30.0028498 341.38843 29.753548 341.38843 29.4742662 341.38843 29.0751781 341.473924 28.7061841 341.642633 28.3670561 341.812482 28.0279282 342.011969 27.7585637 342.241094 27.5591907 342.470219 27.3595896 342.664007 27.2598461 342.823596 27.2598461 343.261328 27.2598461 343.481334 27.569108 343.481334 28.1875178 343.481334 28.2673126 343.426617 28.4518666 343.316044 28.7410658 343.206612 29.030379 343.151895 29.2049017 343.151895 29.2647478 343.151895 29.4043887 343.22713 29.5339983 343.376461 29.6538045 343.525791 29.7734967 343.769735 29.9529211 344.108293 30.1923055 344.805928 30.631291 345.358792 31.0750641 345.766885 31.5239669 346.176119 31.9727558 346.380165 32.5562838 346.380165 33.2744372 346.380165 33.7133086 346.30493 34.1571958 346.1556 34.6059846 346.00627 35.0548874 345.802223 35.5884867 345.54346 36.2068966 345.144486 37.0846395 344.944999 37.7129667 344.944999 38.091992 344.944999 38.3713879 345.009974 38.5608435 345.139926 38.6605871 345.268738 38.7603306 345.453406 38.8101453 345.69279 38.8101453 346.270732 38.8101453 346.903391 38.5708749 347.590767 38.091992 348.278142 37.6132231 348.910801 37.0298091 349.488743 36.3415218 350.066686 35.6533485 350.485038 35.0099744 350.743802 34.4115133L351.341123 34.830436C350.664007 36.2866914 349.742947 37.5634084 348.576803 38.6605871 347.411798 39.7577657 346.201197 40.3062981 344.944999 40.3062981 344.208606 40.3062981 343.605586 40.1118267 343.137076 39.722884 342.668567 39.3338273 342.434882 38.8201767 342.434882 38.1818182 342.434882 37.7828441 342.504417 37.3589057 342.644628 36.9101168 342.783699 36.461214 342.992306 35.9176973 343.271587 35.2792249 343.510972 34.6807638 343.68994 34.2070105 343.809632 33.8579652 343.929325 33.5088059 343.988601 33.184611 343.988601 32.8853805 343.988601 32.0674836 343.460815 31.3793103 342.405244 30.8207467 341.926475 32.2371046 341.473924 33.3991451 341.045312 34.3067541 340.6167 35.2144771 340.013679 36.0124252 339.23739 36.7005985 338.45996 37.3888857 337.483044 37.7329154 336.30778 37.7329154 335.809632 37.7329154 335.332003 37.6432032 334.873753 37.4636649 334.136221 38.3613565 333.358792 39.0845255 332.542605 39.6330579 331.725278 40.1817042 330.937589 40.4559704 330.180678 40.4559704zM334.693645 35.6682816C335.151895 34.9900256 335.506412 34.291821 335.754916 33.5736677 336.00456 32.8555144 336.128812 32.1772585 336.128812 31.5389 336.128812 31.1000285 336.049017 30.7609005 335.889427 30.5215161 335.729838 30.2821317 335.550869 30.1624394 335.351382 30.1624394 334.933029 30.1624394 334.539755 30.4217726 334.170419 30.9404389 333.802223 31.4591052 333.617555 32.0874323 333.617555 32.8255343 333.617555 33.2844685 333.722428 33.7731547 333.932174 34.291821 334.140781 34.8104873 334.394984 35.2693075 334.693645 35.6682816zM330.779139 38.9598176C331.157595 38.9598176 331.615845 38.7553149 332.15389 38.3464235 332.691935 37.9374181 333.239099 37.4138501 333.797663 36.7753776 332.62126 35.8178398 332.013679 34.3417498 331.973782 32.3467655 331.53605 32.845483 331.067541 33.6484469 330.569393 34.7556569 330.071245 35.8627529 329.822742 36.7354802 329.822742 37.3739527 329.822742 37.892619 329.907096 38.2865774 330.075805 38.5558279 330.245654 38.8251924 330.479339 38.9598176 330.779139 38.9598176zM351.610145 47.876888C351.052722 47.876888 350.573953 47.7122827 350.176119 47.3831861 349.777144 47.0539755 349.577657 46.5802223 349.577657 45.9618125 349.577657 45.1838131 349.871758 44.4756911 350.45996 43.8372186 351.048162 43.1988601 351.729838 42.6553434 352.507267 42.2064406 353.284696 41.7576518 354.31063 41.2339698 355.585067 40.6355087 356.083215 39.3787404 356.482189 38.1320034 356.780849 36.8950698 355.166714 38.9299516 353.652893 39.9473354 352.238245 39.9473354 351.441436 39.9473354 350.808777 39.6680536 350.340268 39.1094899 349.871758 38.5508122 349.638074 37.8128242 349.638074 36.8950698 349.638074 35.5585067 350.075805 34.291821 350.953548 33.0948988 351.830151 31.8979766 352.915361 30.9354232 354.210316 30.2073525 355.506412 29.4791679 356.740952 29.1151895 357.917355 29.1151895 358.534055 29.1151895 359.008264 29.2248504 359.336563 29.4442861 359.664862 29.6637219 359.830151 29.9329724 359.830151 30.2521516 359.830151 30.4517526 359.769735 30.631177 359.650043 30.7907666 359.530351 30.9504702 359.431177 31.0401824 359.351382 31.0601311 359.151895 30.8606441 358.952408 30.7210031 358.754061 30.6412083 358.554574 30.5614135 358.30493 30.5215161 358.00627 30.5215161 357.030493 30.5215161 356.083215 30.8856084 355.166714 31.6136791 354.250214 32.3418638 353.508122 33.2196067 352.940439 34.246908 352.372756 35.2743232 352.088914 36.1968652 352.088914 37.014762 352.088914 37.4138501 352.173269 37.7179823 352.343118 37.9275007 352.511827 38.1369051 352.736392 38.2416643 353.015674 38.2416643 353.553719 38.2416643 354.216016 37.892619 355.002565 37.1943004 355.790254 36.4960958 356.572243 35.5985181 357.348532 34.5013394 357.568538 33.384098 357.827301 32.5812482 358.125962 32.092448 358.424622 31.6037618 358.853235 31.3593616 359.411798 31.3593616 359.670561 31.3593616 359.958963 31.399259 360.278142 31.4790539 360.278142 31.9977201 360.059276 33.0350527 359.620405 34.5910516 359.182673 36.1470504 358.653748 37.7628954 358.035908 39.4385865 359.032203 39.0196637 359.9943 38.3663722 360.92106 37.4785979 361.84668 36.5909376 362.510117 35.568538 362.907951 34.4115133L363.445996 34.9501282C363.008264 36.2068966 362.226275 37.3439726 361.100028 38.3613565 359.973782 39.3787404 358.823596 40.1567398 357.648333 40.6953548 356.731832 42.9096609 355.779994 44.6601311 354.793958 45.9468795 353.806783 47.2335138 352.746651 47.876888 351.610145 47.876888zM351.490453 46.5004275C351.889427 46.5004275 352.408093 46.1314335 353.045312 45.3933314 353.682531 44.6551154 354.340268 43.537988 355.017384 42.0418353 353.722428 42.6801938 352.715873 43.2836706 351.99886 43.8522656 351.281847 44.4207467 350.92277 45.0242234 350.92277 45.6625819 350.92277 45.9219151 350.977486 46.1264178 351.086919 46.2759761 351.197492 46.4256483 351.332003 46.5004275 351.490453 46.5004275z"/>
  </g>
</svg>
