<svg xmlns="http://www.w3.org/2000/svg" width="32" height="32" viewBox="0 0 32 32">
  <g fill="none" fill-rule="evenodd">
    <rect width="30.625" height="30.625" x=".688" y=".688" fill="#FFF" stroke="#1F2C3D" stroke-width="1.375" rx="15.313"/>
    <path fill="#1F2C3D" d="M9.82873675,9.52963942 C15.2269489,6.82464836 26.9820694,10.3046966 27.25,10.3046966 C27.2126619,13.4382086 27.25,16.0818008 27.0367452,18.5204892 C26.6985519,19.7097868 24.8874311,19.6398939 23.7786443,20.032038 C22.499719,21.0349777 21.0132081,23.625 15.2269489,23.625 C9.44068981,23.625 4.75,22.3345296 4.75,20.7426538 C4.75,19.8483486 9.40239341,18.5395471 9.4557071,18.2359611 C9.70057453,16.8416043 9.63515736,15.8577796 9.82873675,9.52963942 Z M13.7063141,10.4573529 C12.8079258,10.4573529 11.9636454,10.6237677 11.1734731,10.9565971 L11.1734731,10.9565971 L11.1734731,13.5713235 C11.1734731,15.0153971 11.9562985,16.2579761 13.5822755,16.3467014 C15.2082526,16.4354268 16.5263674,15.1928478 16.5263674,13.5713235 L16.5263674,13.5713235 L16.5263674,10.6352941 C15.5447202,10.5166667 14.6047025,10.4573529 13.7063141,10.4573529 Z" transform="matrix(-1 0 0 1 32 0)"/>
  </g>
</svg>
