<svg xmlns="http://www.w3.org/2000/svg" width="323" height="54" viewBox="0 0 323 54">
  <g fill="none" fill-rule="evenodd" transform="translate(3 3)">
    <path fill="#626B77" fill-rule="nonzero" d="M49.9122542,41.1606704 L49.9122542,15.8831763 L54.172466,15.8831763 L54.172466,41.1606704 L49.9122542,41.1606704 Z M49.9122542,11.1375932 L49.9122542,5.81091817 L54.172466,5.81091817 L54.172466,11.1375932 L49.9122542,11.1375932 Z M83.4614221,41.1606704 L79.2012103,41.1606704 L79.2012103,27.0207695 C79.2012103,24.3089941 78.7897167,22.3397582 77.9667171,21.1130027 C77.1437175,19.8862472 75.8930997,19.2728786 74.214826,19.2728786 C73.3434147,19.2728786 72.4720165,19.442362 71.6006051,19.7813339 C70.7291982,20.1203059 69.9062066,20.5803323 69.1316188,21.161427 C68.3570309,21.7425188 67.6792767,22.4365967 67.0983359,23.2436727 C66.517395,24.0507487 66.0816959,24.938519 65.7912254,25.9070102 L65.7912254,41.1606704 L61.5310136,41.1606704 L61.5310136,15.8831763 L65.4039334,15.8831763 L65.4039334,21.3067 C66.4044427,19.5311328 67.8487046,18.1107003 69.7367625,17.04536 C71.6248203,15.9800196 73.6822884,15.4473575 75.9092284,15.4473575 C77.3615806,15.4473575 78.571856,15.7136886 79.5400908,16.2463587 C80.5083256,16.7790289 81.2829018,17.5215277 81.8638427,18.4738774 C82.4447835,19.426227 82.8562772,20.5480459 83.0983359,21.8393675 C83.3403946,23.1306891 83.4614221,24.5349802 83.4614221,26.0522831 L83.4614221,41.1606704 Z M99.4372163,41.6449136 C97.4039233,41.6449136 95.4029347,41.3301586 93.4341906,40.7006394 C91.4654465,40.0711201 89.7710611,39.1591379 88.3509834,37.9646654 L90.1906203,35.1076306 C91.675247,36.237537 93.1598514,37.0849541 94.6444781,37.6499073 C96.1291048,38.2148605 97.6943942,38.4973329 99.3403933,38.4973329 C101.180039,38.4973329 102.640438,38.1341541 103.721634,37.4077857 C104.802829,36.6814173 105.343419,35.6564462 105.343419,34.3328415 C105.343419,33.7194638 105.198186,33.1948722 104.907716,32.7590512 C104.617245,32.3232301 104.181546,31.9439101 103.600605,31.6210797 C103.019664,31.2982493 102.277362,31.0077063 101.373676,30.749442 C100.46999,30.4911777 99.4210851,30.2167745 98.2269289,29.9262286 C96.7100277,29.5388321 95.4029303,29.1675827 94.3055976,28.8124693 C93.2082648,28.4573558 92.3045926,28.0376802 91.5945537,27.553437 C90.8845149,27.0691938 90.3681307,26.4881054 90.0453858,25.8101615 C89.7226408,25.1322211 89.5612708,24.2928712 89.5612708,23.292097 C89.5612708,22.0330584 89.8113944,20.9112396 90.311649,19.9266069 C90.8119037,18.9419742 91.4977307,18.118769 92.3691377,17.4569667 C93.240549,16.7951643 94.2652488,16.2947847 95.4432678,15.9558128 C96.6212868,15.6168409 97.8880416,15.4473575 99.2435703,15.4473575 C101.147765,15.4473575 102.922836,15.7540418 104.568835,16.3674195 C106.214834,16.9807973 107.602617,17.7878612 108.732224,18.7886354 L106.795764,21.3551243 C105.730706,20.4189161 104.536567,19.7167705 103.213313,19.2486664 C101.890059,18.7805624 100.534551,18.5465138 99.1467474,18.5465138 C97.5975717,18.5465138 96.2824058,18.87741 95.2012103,19.5392123 C94.1200148,20.2010147 93.5794251,21.2582684 93.5794251,22.7110052 C93.5794251,23.2920999 93.6843156,23.7763382 93.8940998,24.1637347 C94.1038841,24.5511312 94.4508297,24.8900995 94.934947,25.1806454 C95.4190644,25.4711928 96.0403391,25.7294532 96.7987897,25.9554345 C97.5572403,26.1814158 98.4689811,26.4235349 99.5340393,26.6817993 C101.212313,27.0691938 102.672712,27.4646571 103.91528,27.8681951 C105.157848,28.2717331 106.190616,28.7479008 107.013616,29.2967124 C107.836615,29.8455241 108.449821,30.4911752 108.853253,31.2336852 C109.256684,31.9761951 109.458396,32.8801067 109.458396,33.945447 C109.458396,36.3021089 108.554724,38.1744972 106.747352,39.5626679 C104.939981,40.9508386 102.503293,41.6449136 99.4372163,41.6449136 Z M122.771558,41.6449136 C120.12505,41.6449136 118.124061,40.7571433 116.768533,38.9815761 C115.413004,37.2060089 114.73525,34.5588393 114.73525,31.0399879 L114.73525,15.8831763 L118.995461,15.8831763 L118.995461,30.2167745 C118.995461,35.3820609 120.786669,37.9646654 124.369138,37.9646654 C126.11196,37.9646654 127.749866,37.4077913 129.282905,36.2940264 C130.815943,35.1802615 131.953602,33.6549108 132.695915,31.7179283 L132.695915,15.8831763 L136.956127,15.8831763 L136.956127,35.930844 C136.956127,36.9316183 137.407963,37.4481392 138.311649,37.4804222 L138.311649,41.1606704 C137.827532,41.2252365 137.448312,41.2655896 137.173979,41.2817312 C136.899646,41.2978727 136.633385,41.3059433 136.375189,41.3059433 C135.536052,41.3059433 134.834093,41.0557535 134.269289,40.5553664 C133.704485,40.0549793 133.405951,39.4335401 133.373676,38.6910302 L133.276853,35.7371467 C132.147246,37.6418461 130.662642,39.1026318 128.822995,40.1195475 C126.983349,41.1364633 124.966224,41.6449136 122.771558,41.6449136 Z M157.918306,19.6118488 C155.788189,19.6764149 153.908228,20.2252184 152.278366,21.2582756 C150.648504,22.2913329 149.494708,23.7279067 148.816944,25.56804 L148.816944,41.1606704 L144.556732,41.1606704 L144.556732,15.8831763 L148.526475,15.8831763 L148.526475,21.7425188 C149.397882,19.9992347 150.543614,18.5868728 151.963691,17.505391 C153.383769,16.4239091 154.900648,15.8186112 156.514372,15.6894791 L157.337368,15.6894791 C157.563289,15.6894791 157.756933,15.7056203 157.918306,15.7379034 L157.918306,19.6118488 Z M162.614221,41.1606704 L162.614221,15.8831763 L166.874433,15.8831763 L166.874433,41.1606704 L162.614221,41.1606704 Z M162.614221,11.1375932 L162.614221,5.81091817 L166.874433,5.81091817 L166.874433,11.1375932 L162.614221,11.1375932 Z M175.298033,41.1606704 L175.298033,22.081489 L171.95764,22.081489 L171.95764,17.1422086 L175.298033,17.1422086 L175.298033,15.5926304 C175.298033,12.4288925 176.056472,9.92699441 177.573374,8.08686112 C179.090275,6.24672783 181.155811,5.32667499 183.770045,5.32667499 C185.835613,5.32667499 187.917287,5.82705461 190.015129,6.82782885 L188.708018,11.718685 C188.223901,11.4604207 187.651037,11.2425134 186.98941,11.0649567 C186.327783,10.8874 185.722645,10.7986229 185.173979,10.7986229 C182.914764,10.7986229 181.785174,12.3159031 181.785174,15.3505088 L181.785174,17.1422086 L187.981846,17.1422086 L187.981846,22.081489 L181.785174,22.081489 L181.785174,41.1606704 L175.298033,41.1606704 Z M193.549168,41.1606704 L193.549168,15.7863277 L200.036309,15.7863277 L200.036309,41.1606704 L193.549168,41.1606704 Z M193.549168,12.2513525 L193.549168,5.81091817 L200.036309,5.81091817 L200.036309,12.2513525 L193.549168,12.2513525 Z M229.954614,41.1606704 L223.467474,41.1606704 L223.467474,26.9239209 C223.467474,24.8900893 223.112459,23.4050918 222.402421,22.4688836 C221.692382,21.5326754 220.708024,21.0645784 219.449319,21.0645784 C218.803829,21.0645784 218.142212,21.1937086 217.464448,21.4519729 C216.786687,21.7102372 216.149272,22.073416 215.552194,22.5415201 C214.955116,23.0096242 214.414526,23.5664982 213.930408,24.212159 C213.446291,24.8578198 213.091277,25.5680361 212.865356,26.342829 L212.865356,41.1606704 L206.378215,41.1606704 L206.378215,15.7863277 L212.236006,15.7863277 L212.236006,20.4834866 C213.171966,18.8693345 214.527475,17.6103149 216.302572,16.7063897 C218.077669,15.8024646 220.078658,15.3505088 222.305598,15.3505088 C223.887048,15.3505088 225.178008,15.6410518 226.178517,16.2221466 C227.179027,16.8032384 227.953603,17.5618813 228.502269,18.4980895 C229.050936,19.4342977 229.430155,20.499622 229.639939,21.6940945 C229.849724,22.888567 229.954614,24.0991628 229.954614,25.3259184 L229.954614,41.1606704 Z M246.608169,41.6449136 C244.865347,41.6449136 243.251646,41.3059467 241.76702,40.6280029 C240.282393,39.9500624 239.00757,39.0138649 237.942511,37.8193924 C236.877453,36.6249199 236.046397,35.2286994 235.449319,33.6306889 C234.852241,32.0326784 234.553707,30.3136323 234.553707,28.473499 C234.553707,26.6333657 234.836104,24.9223903 235.400908,23.3405213 C235.965711,21.7586524 236.748356,20.3705024 237.748865,19.17603 C238.749375,17.9815575 239.943513,17.0453634 241.331316,16.3674195 C242.719119,15.6894757 244.235998,15.3505088 245.881997,15.3505088 C247.753918,15.3505088 249.440235,15.8024646 250.940998,16.7063897 C252.441762,17.6103149 253.611695,18.7886282 254.450832,20.241365 L254.450832,5.81091817 L260.937973,5.81091817 L260.937973,33.7033254 C260.937973,34.3812658 261.050932,34.865509 261.276853,35.1560549 C261.502775,35.4466023 261.890063,35.6080151 262.438729,35.6402981 L262.438729,41.1606704 C261.309122,41.3866517 260.389313,41.4996406 259.679274,41.4996406 C258.517392,41.4996406 257.565309,41.2090976 256.822995,40.6280029 C256.080682,40.0469082 255.66112,39.2882681 255.564297,38.3520599 L255.419062,36.7540574 C254.483102,38.3682094 253.216347,39.5868759 251.618759,40.4100934 C250.021172,41.233311 248.350992,41.6449136 246.608169,41.6449136 Z M248.302572,36.1245413 C248.915787,36.1245413 249.54513,36.019623 250.19062,35.8097832 C250.83611,35.5999435 251.433179,35.3013298 251.981846,34.9139333 C252.530512,34.5265369 253.022691,34.0745811 253.458396,33.5580524 C253.894102,33.0415238 254.224911,32.4765791 254.450832,31.8632013 L254.450832,25.8101615 C254.192636,25.0999347 253.829554,24.4462129 253.361573,23.8489767 C252.893593,23.2517404 252.361072,22.7352195 251.763994,22.2993985 C251.166916,21.8635774 250.537573,21.51654 249.875946,21.2582756 C249.214318,21.0000113 248.56077,20.8708811 247.91528,20.8708811 C246.947045,20.8708811 246.051441,21.0807177 245.228442,21.5003972 C244.405442,21.9200768 243.70348,22.4930921 243.122542,23.2194605 C242.541601,23.9458289 242.089765,24.7771047 241.76702,25.7133129 C241.444275,26.6495211 241.282905,27.6179977 241.282905,28.618772 C241.282905,29.6841123 241.460412,30.6687303 241.815431,31.5726554 C242.170451,32.4765805 242.654561,33.2675031 243.267776,33.945447 C243.880991,34.6233908 244.615225,35.1560549 245.470499,35.5434495 C246.325773,35.930846 247.269788,36.1245413 248.302572,36.1245413 Z M266.408472,41.1606704 L266.408472,38.4489086 L268.199697,38.4489086 L268.199697,41.1606704 L266.408472,41.1606704 Z M271.104387,34.8170847 C271.104387,33.9293011 271.257689,33.0899546 271.564297,32.2990202 C271.870904,31.5080857 272.306603,30.818046 272.871407,30.2288806 C273.436211,29.6397151 274.109931,29.171618 274.892587,28.8245753 C275.675243,28.4775327 276.550676,28.3040139 277.518911,28.3040139 C278.777616,28.3040139 279.86283,28.582451 280.774584,29.1393334 C281.686338,29.6962159 282.376195,30.44275 282.844175,31.3789581 L280.762481,32.0326864 C280.439736,31.4354502 279.9879,30.9713884 279.406959,30.6404873 C278.826018,30.3095861 278.180538,30.144138 277.470499,30.144138 C276.889558,30.144138 276.3409,30.2611623 275.824508,30.4952143 C275.308116,30.7292664 274.864349,31.0561272 274.493192,31.4758068 C274.122035,31.8954863 273.827535,32.3877953 273.609682,32.9527485 C273.391829,33.5177017 273.282905,34.1391409 273.282905,34.8170847 C273.282905,35.478887 273.395864,36.1003262 273.621785,36.681421 C273.847707,37.2625128 274.150275,37.7669306 274.529501,38.1946809 C274.908726,38.6224312 275.352494,38.9573639 275.860817,39.1994855 C276.36914,39.4416071 276.913767,39.5626679 277.494705,39.5626679 C277.865862,39.5626679 278.232979,39.5102087 278.596067,39.4052888 C278.959155,39.300369 279.289963,39.1591328 279.588502,38.9815761 C279.887041,38.8040139 280.149268,38.598218 280.375189,38.364166 C280.601111,38.130114 280.762481,37.8758888 280.859304,37.601483 L282.940998,38.2309991 C282.747352,38.6991032 282.477057,39.1268471 282.130106,39.5142436 C281.783155,39.90164 281.375696,40.2325362 280.907716,40.5069421 C280.439735,40.7813479 279.919317,40.9992552 279.346445,41.1606704 C278.773573,41.3220856 278.172469,41.402792 277.543116,41.402792 C276.591019,41.402792 275.719621,41.2252379 274.928896,40.8701245 C274.138171,40.515011 273.460416,40.0388433 272.895613,39.4416071 C272.330809,38.8443708 271.891076,38.1462606 271.576399,37.3472553 C271.261723,36.5482501 271.104387,35.7048683 271.104387,34.8170847 Z M291.24357,41.402792 C290.291473,41.402792 289.424109,41.2252379 288.641452,40.8701245 C287.858796,40.515011 287.18911,40.0388433 286.632375,39.4416071 C286.07564,38.8443708 285.643975,38.1502959 285.337368,37.3593614 C285.03076,36.5684269 284.877458,35.7371511 284.877458,34.865509 C284.877458,33.9777254 285.034794,33.138379 285.34947,32.3474445 C285.664147,31.55651 286.099846,30.862435 286.656581,30.2651988 C287.213316,29.6679626 287.883002,29.1917949 288.665658,28.8366814 C289.448315,28.481568 290.30761,28.3040139 291.24357,28.3040139 C292.179531,28.3040139 293.04286,28.481568 293.833585,28.8366814 C294.624311,29.1917949 295.29803,29.6679626 295.854766,30.2651988 C296.411501,30.862435 296.8472,31.55651 297.161876,32.3474445 C297.476552,33.138379 297.633888,33.9777254 297.633888,34.865509 C297.633888,35.7371511 297.480587,36.5684269 297.173979,37.3593614 C296.867371,38.1502959 296.431672,38.8443708 295.866868,39.4416071 C295.302065,40.0388433 294.628345,40.515011 293.845688,40.8701245 C293.063032,41.2252379 292.195668,41.402792 291.24357,41.402792 Z M287.055976,34.8897212 C287.055976,35.5515235 287.164901,36.1648921 287.382753,36.7298453 C287.600606,37.2947985 287.899141,37.7871074 288.278366,38.206787 C288.657591,38.6264665 289.101359,38.9573627 289.609682,39.1994855 C290.118006,39.4416083 290.662629,39.5626679 291.24357,39.5626679 C291.824511,39.5626679 292.369135,39.4416083 292.877458,39.1994855 C293.385782,38.9573627 293.833585,38.6224312 294.220877,38.1946809 C294.608171,37.7669306 294.91074,37.266551 295.128593,36.693527 C295.346446,36.1205031 295.455371,35.5030992 295.455371,34.8412969 C295.455371,34.1956361 295.346446,33.5863028 295.128593,33.0132789 C294.91074,32.4402549 294.608171,31.9398753 294.220877,31.512125 C293.833585,31.0843747 293.385782,30.7494432 292.877458,30.5073204 C292.369135,30.2651976 291.824511,30.144138 291.24357,30.144138 C290.662629,30.144138 290.118006,30.2692329 289.609682,30.5194265 C289.101359,30.76962 288.657591,31.1085869 288.278366,31.5363372 C287.899141,31.9640874 287.600606,32.4644671 287.382753,33.037491 C287.164901,33.610515 287.055976,34.2279189 287.055976,34.8897212 Z M319.757943,41.1606704 L317.627837,41.1606704 L317.627837,34.0907199 C317.627837,32.7671153 317.414021,31.790568 316.986384,31.1610487 C316.558747,30.5315294 315.92537,30.2167745 315.086233,30.2167745 C314.214822,30.2167745 313.436211,30.5274941 312.750378,31.1489426 C312.064545,31.7703911 311.576401,32.5734197 311.28593,33.5580524 L311.28593,41.1606704 L309.155825,41.1606704 L309.155825,34.0907199 C309.155825,32.7348322 308.946043,31.7502143 308.526475,31.1368365 C308.106907,30.5234588 307.477563,30.2167745 306.638427,30.2167745 C305.783153,30.2167745 305.008576,30.5194234 304.314675,31.1247305 C303.620773,31.7300375 303.128593,32.533066 302.838124,33.5338403 L302.838124,41.1606704 L300.708018,41.1606704 L300.708018,28.5219234 L302.644478,28.5219234 L302.644478,31.2336852 C303.16087,30.297477 303.830556,29.5751548 304.653555,29.0666969 C305.476555,28.558239 306.404433,28.3040139 307.437216,28.3040139 C308.502275,28.3040139 309.345433,28.5905216 309.966717,29.1635456 C310.588001,29.7365695 310.971255,30.475033 311.11649,31.3789581 C312.246097,29.3289851 313.851729,28.3040139 315.933434,28.3040139 C316.65961,28.3040139 317.268782,28.4371795 317.760968,28.7035145 C318.253154,28.9698496 318.644477,29.341099 318.934947,29.8172739 C319.225417,30.2934487 319.435199,30.8543581 319.564297,31.5000189 C319.693394,32.1456797 319.757943,32.8478253 319.757943,33.6064768 L319.757943,41.1606704 Z"/>
    <g stroke="#626B77" transform="translate(.122 .054)">
      <rect width="36.549" height="46.974" stroke-width="4.358" rx="5.958"/>
      <line x1="21.555" x2="27.412" y1="11.915" y2="11.915" stroke-linecap="round" stroke-width="3.208"/>
      <line x1="9.606" x2="27.412" y1="20.623" y2="20.623" stroke-linecap="round" stroke-width="3.208"/>
      <line x1="9.372" x2="27.178" y1="29.33" y2="29.33" stroke-linecap="round" stroke-width="3.208"/>
      <rect width="6.092" height="5.958" x="9.606" y="8.936" stroke-width="3.208" rx=".458"/>
      <line x1="9.372" x2="27.178" y1="38.037" y2="38.037" stroke-linecap="round" stroke-width="3.208"/>
    </g>
  </g>
</svg>
