<svg width="1128" height="635" viewBox="0 0 1128 635" fill="none" xmlns="http://www.w3.org/2000/svg">
<rect width="1128" height="635" fill="white"/>
<g clip-path="url(#clip0_409_623)">
<path d="M1110.38 0H-17.625V634.5H1110.38V0Z" fill="white"/>
<path d="M607.829 1473.6C592.767 1430.44 571.828 1311.13 517.458 1214.62C463.088 1118.11 338.675 990.455 281.608 894.549C224.541 798.644 214.361 736.73 175.055 639.191C135.75 541.651 95.8993 398.327 45.7757 309.314C-4.34796 220.301 -74.0372 180.723 -125.686 105.112C-177.335 29.502 -220.199 -47.6335 -264.119 -144.349C-308.038 -241.064 -368.358 -420.041 -389.206 -475.18L765.628 -1066.02L1762.66 882.767L607.829 1473.6Z" fill="url(#paint0_linear_409_623)"/>
<path d="M933.83 1344.15C910.886 1310.89 845.652 1223.25 796.162 1144.59C746.672 1065.92 696.405 949.368 636.89 872.154C577.375 794.94 1208.45 697.789 1148 628C1108.3 582.164 743.828 516.917 498.315 477.527C356.935 454.845 237.009 367.659 150.574 253.502V253.502C94.9468 180.034 -2.57243 82.3481 -59.565 12.6113C-116.557 -57.1256 -142.099 -91.9749 -191.381 -164.919C-240.664 -237.862 -327.946 -381.696 -355.259 -425.051L562.106 -1093.47L1851.19 675.735L933.83 1344.15Z" fill="url(#paint1_linear_409_623)"/>
<path d="M945.534 1381C925.27 1333.95 872.314 1189.07 823.953 1098.72C775.592 1008.37 1213.5 579 1213.5 579L727.672 490.796C569.398 462.061 424.466 376.828 338.297 240.993V240.993C278.448 146.647 249.967 86.3478 205.43 -7.19273C160.894 -100.733 113.898 -226.819 71.0759 -320.251C28.2541 -413.682 -31.0713 -526.528 -51.5007 -567.784L814.625 -1010.91L1811.66 937.872L945.534 1381Z" fill="url(#paint2_linear_409_623)"/>
<path d="M975.431 1108.15C946.047 1048.96 1158 623.997 1158 623.997L832.575 453.808C691.119 379.83 580.237 259.233 511.456 115.178C477.156 43.3419 440.474 -29.6641 412.106 -76.6039C338.869 -197.787 236.508 -281.066 164.223 -408.404C91.9382 -535.742 9.36719 -768.594 -21.604 -840.632L700.167 -1209.9L1697.2 738.878L975.431 1108.15Z" fill="url(#paint3_linear_409_623)"/>
<path d="M1185.25 1178.18C1155.62 1106.2 1344.83 776.612 1277 640.497C1209.16 504.381 1142 640.497 778.243 361.491C670.997 279.232 686.985 148.831 620.821 22.4335C554.657 -103.964 453.358 -264.723 381.256 -396.894C309.155 -529.066 220.385 -708.314 188.211 -770.598L765.628 -1066.02L1762.66 882.767L1185.25 1178.18Z" fill="url(#paint4_linear_409_623)"/>
<path d="M1329.6 1104.33C1299.89 1060.83 1197.44 936.91 1151.35 843.342C1105.25 749.775 1194.11 639.1 1151.35 550.497C1126.22 498.425 1042 425.09 976.827 373.468C924.125 331.724 880.383 279.282 853.217 217.783C823.772 151.127 785.159 63.5826 759.9 5.80795C714.267 -98.5676 673.652 -217.165 620.953 -314.531C568.254 -411.897 491.772 -490.066 443.707 -578.386C395.643 -666.706 351.089 -800.108 332.565 -844.452L765.628 -1066.02L1762.66 882.767L1329.6 1104.33Z" fill="url(#paint5_linear_409_623)"/>
<path d="M1473.96 1030.48C1449.52 972.406 1384.4 784.838 1327.32 682.056C1270.23 579.273 1183 519.592 1131.46 413.781C1079.92 307.971 1076.28 166.244 1018.07 47.1923C959.864 -71.8599 839.746 -194.837 782.196 -300.532C724.646 -406.227 723.652 -484.013 672.772 -586.976C621.893 -689.938 509.562 -863.085 476.92 -918.307L765.629 -1066.02L1762.66 882.767L1473.96 1030.48Z" fill="url(#paint6_linear_409_623)"/>
<path d="M1618.31 956.621C1576.42 871.751 1443.75 611.932 1366.94 447.401C1290.14 282.871 1237.53 132.625 1157.49 -30.5616C1077.45 -193.749 976.08 -371.454 886.711 -531.72C797.342 -691.987 665.514 -915.421 621.275 -992.161L765.629 -1066.02L1762.66 882.767L1618.31 956.621Z" fill="url(#paint7_linear_409_623)"/>
</g>
<defs>
<linearGradient id="paint0_linear_409_623" x1="689.971" y1="1431.58" x2="-604.256" y2="-325.081" gradientUnits="userSpaceOnUse">
<stop stop-color="white"/>
</linearGradient>
<linearGradient id="paint1_linear_409_623" x1="1008.95" y1="1289.42" x2="-574.26" y2="-198.168" gradientUnits="userSpaceOnUse">
<stop offset="0.255458" stop-color="#00655F"/>
<stop offset="0.59513" stop-color="white"/>
</linearGradient>
<linearGradient id="paint2_linear_409_623" x1="959.896" y1="1293.48" x2="-411.67" y2="-375.129" gradientUnits="userSpaceOnUse">
<stop offset="0.4203" stop-color="#00655F"/>
<stop offset="0.680139" stop-color="white"/>
</linearGradient>
<linearGradient id="paint3_linear_409_623" x1="1087.23" y1="1228.33" x2="-334.981" y2="-370.632" gradientUnits="userSpaceOnUse">
<stop offset="0.378053" stop-color="#00655F"/>
<stop offset="0.677023" stop-color="white"/>
</linearGradient>
<linearGradient id="paint4_linear_409_623" x1="1242.51" y1="1148.89" x2="-257.614" y2="-313.552" gradientUnits="userSpaceOnUse">
<stop stop-color="#003E46"/>
<stop offset="0.5" stop-color="#006B65"/>
</linearGradient>
<linearGradient id="paint5_linear_409_623" x1="1340.96" y1="1098.52" x2="-215.439" y2="-222.426" gradientUnits="userSpaceOnUse">
<stop stop-color="#007381"/>
<stop offset="0.625" stop-color="#002724"/>
</linearGradient>
<linearGradient id="paint6_linear_409_623" x1="1483.52" y1="1025.58" x2="-125.125" y2="68.0327" gradientUnits="userSpaceOnUse">
<stop stop-color="#00606C"/>
<stop offset="0.75" stop-color="#000908"/>
</linearGradient>
<linearGradient id="paint7_linear_409_623" x1="1632.74" y1="949.236" x2="334.545" y2="733.536" gradientUnits="userSpaceOnUse">
<stop/>
<stop offset="0.875"/>
</linearGradient>
<clipPath id="clip0_409_623">
<rect width="1128" height="634.5" fill="white"/>
</clipPath>
</defs>
</svg>
