<svg xmlns="http://www.w3.org/2000/svg" width="320" height="50" viewBox="0 0 320 50">
  <g fill="#626B77" fill-rule="evenodd">
    <path fill-rule="nonzero" d="M57.4838407 46.4637002C57.3826698 46.4637002 57.3039813 46.4355972 57.2477752 46.3793911 57.1915691 46.3119438 57.163466 46.2276347 57.163466 46.1264637L57.163466 34.2388759C57.163466 34.1377049 57.1803279 34.064637 57.2140515 34.0196721 57.2590164 33.9747073 57.3320843 33.9522248 57.4332553 33.9522248L60.282904 33.9522248C60.3953162 33.9522248 60.4740047 33.9690867 60.5189696 34.0028103 60.5751756 34.036534 60.6145199 34.0983607 60.6370023 34.1882904L63.6046838 42.1470726C63.6384075 42.2370023 63.6777518 42.2819672 63.7227166 42.2819672 63.7676815 42.2819672 63.8070258 42.2313817 63.8407494 42.1302108L66.7241218 34.2725995C66.7803279 34.0590164 66.89274 33.9522248 67.0613583 33.9522248L70.012178 33.9522248C70.169555 33.9522248 70.2482436 34.0421546 70.2482436 34.2220141L70.2482436 46.1096019C70.2482436 46.2332553 70.2201405 46.323185 70.1639344 46.3793911 70.1077283 46.4355972 70.012178 46.4637002 69.8772834 46.4637002L68.0730679 46.4637002C67.9606557 46.4637002 67.8763466 46.4412178 67.8201405 46.3962529 67.7751756 46.3512881 67.7526932 46.2725995 67.7526932 46.1601874L67.7526932 37.341452C67.7526932 37.2740047 67.7358314 37.240281 67.7021077 37.240281 67.6908665 37.240281 67.6627635 37.2796253 67.6177986 37.3583138L64.4140515 46.2107728C64.3690867 46.3793911 64.2566745 46.4637002 64.076815 46.4637002L62.8796253 46.4637002C62.6997658 46.4637002 62.5761124 46.3793911 62.5086651 46.2107728L59.3386417 37.4594848C59.3274005 37.3807963 59.2992974 37.341452 59.2543326 37.341452 59.2206089 37.341452 59.2037471 37.3864169 59.2037471 37.4763466L59.2037471 46.193911C59.2037471 46.295082 59.1812646 46.3681499 59.1362998 46.4131148 59.1025761 46.4468384 59.0295082 46.4637002 58.917096 46.4637002L57.4838407 46.4637002zM76.9525059 46.6323185C76.0869321 46.6323185 75.3169087 46.4412178 74.6424356 46.0590164 73.9679625 45.6655738 73.4452459 45.1203747 73.0742857 44.4234192 72.7033255 43.7264637 72.5178454 42.9339578 72.5178454 42.0459016 72.5178454 41.135363 72.7089461 40.3259953 73.0911475 39.6177986 73.4733489 38.8983607 74.0016862 38.3419204 74.6761593 37.9484778 75.3506323 37.5550351 76.1150351 37.3583138 76.9693677 37.3583138 77.8349415 37.3583138 78.6049649 37.5606557 79.2794379 37.9653396 79.953911 38.3587822 80.4766276 38.9096019 80.8475878 39.6177986 81.218548 40.3259953 81.4040281 41.1297424 81.4040281 42.0290398 81.4040281 42.917096 81.2129274 43.7096019 80.830726 44.4065574 80.4597658 45.1035129 79.9370492 45.6487119 79.2625761 46.0421546 78.588103 46.4355972 77.8180796 46.6323185 76.9525059 46.6323185zM76.9693677 45.1316159C77.6888056 45.1316159 78.2340047 44.8618267 78.6049649 44.3222482 78.9871663 43.7826698 79.178267 43.0070258 79.178267 41.9953162 79.178267 40.9723653 78.9871663 40.1854801 78.6049649 39.6346604 78.2227635 39.0838407 77.6775644 38.8084309 76.9693677 38.8084309 76.261171 38.8084309 75.7103513 39.0838407 75.3169087 39.6346604 74.9347073 40.1854801 74.7436066 40.9723653 74.7436066 41.9953162 74.7436066 43.0070258 74.9347073 43.7826698 75.3169087 44.3222482 75.7103513 44.8618267 76.261171 45.1316159 76.9693677 45.1316159zM83.7077283 46.4637002C83.5053864 46.4637002 83.4042155 46.3625293 83.4042155 46.1601874L83.4042155 37.8135831C83.4042155 37.6224824 83.482904 37.5269321 83.640281 37.5269321L85.2758782 37.5269321C85.4332553 37.5269321 85.5119438 37.6112412 85.5119438 37.7798595L85.5119438 38.8084309C85.5119438 38.8983607 85.5400468 38.9433255 85.5962529 38.9433255 85.6299766 38.9433255 85.6749415 38.9152225 85.7311475 38.8590164 86.1021077 38.3868852 86.5124122 38.0215457 86.9620609 37.7629977 87.4117096 37.4932084 87.8501171 37.3583138 88.2772834 37.3583138 88.6819672 37.3583138 88.8843091 37.4482436 88.8843091 37.628103L88.8843091 39.2468384C88.8843091 39.4042155 88.8112412 39.4716628 88.6651054 39.4491803 88.3503513 39.3704918 88.0018735 39.3311475 87.6196721 39.3311475 87.3274005 39.3311475 87.018267 39.4098361 86.6922717 39.5672131 86.3775176 39.7245902 86.1133489 39.9325527 85.8997658 40.1911007 85.6974239 40.4384075 85.5962529 40.6969555 85.5962529 40.9667447L85.5962529 46.1264637C85.5962529 46.3512881 85.4669789 46.4637002 85.2084309 46.4637002L83.7077283 46.4637002zM93.9451054 39.0613583C93.8326932 39.0613583 93.7764871 39.123185 93.7764871 39.2468384L93.7764871 43.7489461C93.7764871 44.1761124 93.8607963 44.4796253 94.0294145 44.6594848 94.209274 44.828103 94.4959251 44.9124122 94.8893677 44.9124122L95.8842155 44.9124122C95.9516628 44.9124122 96.0078689 44.9348946 96.0528337 44.9798595 96.0977986 45.0248244 96.120281 45.0810304 96.120281 45.1484778L96.1034192 46.0252927C96.1034192 46.2163934 95.9966276 46.3288056 95.7830445 46.3625293 95.3783607 46.4299766 94.7600937 46.4637002 93.9282436 46.4637002 93.1638407 46.4637002 92.5792974 46.2894614 92.1746136 45.9409836 91.781171 45.5812646 91.5844496 45.0416862 91.5844496 44.3222482L91.5844496 39.2805621C91.5844496 39.1344262 91.5170023 39.0613583 91.3821077 39.0613583L90.2523653 39.0613583C90.0725059 39.0613583 89.9825761 38.9770492 89.9825761 38.8084309L89.9825761 37.7461358C89.9825761 37.6 90.0668852 37.5269321 90.2355035 37.5269321L91.4832787 37.5269321C91.5844496 37.5269321 91.6350351 37.470726 91.6350351 37.3583138L91.8542389 34.7615925C91.8654801 34.6604215 91.8879625 34.5929742 91.9216862 34.5592506 91.9554098 34.5142857 92.0116159 34.4918033 92.0903044 34.4918033L93.591007 34.4918033C93.6584543 34.4918033 93.7146604 34.5199063 93.7596253 34.5761124 93.8045902 34.6210773 93.8270726 34.6885246 93.8270726 34.7784543L93.8270726 37.3583138C93.8270726 37.4594848 93.8776581 37.5100703 93.978829 37.5100703L95.8842155 37.5100703C96.0528337 37.5100703 96.1371429 37.5887588 96.1371429 37.7461358L96.1371429 38.8084309C96.1371429 38.9770492 96.0415925 39.0613583 95.8504918 39.0613583L93.9451054 39.0613583zM106.743232 37.2234192C106.968056 37.2234192 107.080468 37.3358314 107.080468 37.5606557L107.080468 38.504918C107.080468 38.7859485 106.956815 38.9096019 106.709508 38.8758782 106.619578 38.864637 106.495925 38.8590164 106.338548 38.8590164 106.16993 38.8590164 106.018173 38.8758782 105.883279 38.9096019 105.591007 38.9770492 105.478595 39.1063232 105.546042 39.2974239 105.613489 39.4772834 105.664075 39.6290398 105.697799 39.7526932 105.731522 39.8651054 105.748384 40.0112412 105.748384 40.1911007 105.748384 40.7081967 105.596628 41.1747073 105.293115 41.5906323 105.000843 42.0065574 104.556815 42.3381733 103.96103 42.5854801 103.376487 42.8215457 102.66267 42.9395785 101.819578 42.9395785 101.122623 42.9395785 100.616768 42.9957845 100.302014 43.1081967 99.9985012 43.2206089 99.8467447 43.3723653 99.8467447 43.563466 99.8467447 43.7208431 99.9366745 43.8332553 100.116534 43.9007026 100.307635 43.9681499 100.622389 44.0131148 101.060796 44.0355972L103.387728 44.1704918C104.455644 44.2266979 105.24815 44.4683841 105.765246 44.8955504 106.293583 45.3114754 106.557752 45.8735363 106.557752 46.581733 106.557752 47.4473068 106.153068 48.1330211 105.3437 48.6388759 104.545574 49.1559719 103.40459 49.4145199 101.920749 49.4145199 100.35822 49.4145199 99.1778923 49.2234192 98.3797658 48.8412178 97.5928806 48.4702576 97.1994379 47.9138173 97.1994379 47.171897 97.1994379 46.8009368 97.3343326 46.4805621 97.6041218 46.2107728 97.8851522 45.9297424 98.2842155 45.6824356 98.8013115 45.4688525 98.8687588 45.44637 98.9024824 45.418267 98.9024824 45.3845433 98.9024824 45.3508197 98.8687588 45.317096 98.8013115 45.2833724 98.1942857 45.0135831 97.8907728 44.6313817 97.8907728 44.1367681 97.8907728 43.8444965 98.0312881 43.5747073 98.3123185 43.3274005 98.5933489 43.0800937 98.9643091 42.8665105 99.4251991 42.6866511 99.5038876 42.6416862 99.5432319 42.6079625 99.5432319 42.5854801 99.5432319 42.5517564 99.5095082 42.5180328 99.4420609 42.4843091 98.3966276 41.9896956 97.873911 41.2309133 97.873911 40.2079625 97.873911 39.3423888 98.2280094 38.6566745 98.9362061 38.1508197 99.655644 37.6449649 100.672974 37.3920375 101.988197 37.3920375 103.12356 37.3920375 104.000375 37.6449649 104.618642 38.1508197 104.69733 38.2070258 104.770398 38.2351288 104.837845 38.2351288 104.916534 38.2351288 104.989602 38.2014052 105.057049 38.1339578 105.259391 37.8866511 105.52356 37.6730679 105.849555 37.4932084 106.186792 37.3133489 106.484684 37.2234192 106.743232 37.2234192zM101.802717 41.7929742C102.443466 41.7929742 102.926838 41.652459 103.252834 41.3714286 103.578829 41.0903981 103.741827 40.7081967 103.741827 40.2248244 103.741827 39.7077283 103.578829 39.3030445 103.252834 39.0107728 102.926838 38.70726 102.443466 38.5555035 101.802717 38.5555035 101.195691 38.5555035 100.717939 38.70726 100.369461 39.0107728 100.032225 39.3142857 99.8636066 39.7189696 99.8636066 40.2248244 99.8636066 40.6969555 100.032225 41.0791569 100.369461 41.3714286 100.717939 41.652459 101.195691 41.7929742 101.802717 41.7929742zM100.470632 45.7555035C100.133396 45.7330211 99.8074005 45.834192 99.4926464 46.0590164 99.1891335 46.2838407 99.037377 46.5592506 99.037377 46.8852459 99.037377 47.3461358 99.2790632 47.6946136 99.7624356 47.9306792 100.257049 48.1667447 101.032693 48.2847775 102.089368 48.2847775 102.909977 48.2847775 103.533864 48.1667447 103.96103 47.9306792 104.388197 47.7058548 104.60178 47.3742389 104.60178 46.9358314 104.60178 46.2838407 104.118407 45.935363 103.151663 45.8903981L100.470632 45.7555035zM113.876909 45.5362998C113.090023 46.2669789 112.168244 46.6323185 111.111569 46.6323185 110.257237 46.6323185 109.577143 46.4074941 109.071288 45.9578454 108.576674 45.4969555 108.329368 44.901171 108.329368 44.1704918 108.329368 43.2374707 108.745293 42.4955504 109.577143 41.9447307 110.408993 41.393911 111.572459 41.0903981 113.067541 41.034192L113.910632 40.9836066C114.090492 40.9611241 114.180422 40.876815 114.180422 40.7306792L114.180422 40.3428571C114.180422 39.8482436 114.028665 39.4660422 113.725152 39.1962529 113.432881 38.9152225 113.028197 38.7747073 112.511101 38.7747073 111.656768 38.7747073 110.999157 39.1456674 110.538267 39.8875878 110.504543 39.9325527 110.47082 39.971897 110.437096 40.0056206 110.414614 40.028103 110.38089 40.0393443 110.335925 40.0393443 110.279719 40.0393443 110.234754 40.0337237 110.20103 40.0224824L108.784637 39.6683841C108.694707 39.6459016 108.649742 39.5953162 108.649742 39.5166276 108.649742 39.4604215 108.672225 39.3873536 108.71719 39.2974239 109.009461 38.6679157 109.487213 38.1901639 110.150445 37.8641686 110.824918 37.5269321 111.645527 37.3583138 112.612272 37.3583138 113.871288 37.3583138 114.793068 37.6056206 115.377611 38.1002342 115.973396 38.5948478 116.271288 39.2918033 116.271288 40.1911007L116.271288 46.1264637C116.271288 46.2501171 116.248806 46.3400468 116.203841 46.3962529 116.170117 46.4412178 116.097049 46.4637002 115.984637 46.4637002L114.551382 46.4637002C114.450211 46.4637002 114.377143 46.4299766 114.332178 46.3625293 114.287213 46.295082 114.253489 46.193911 114.231007 46.0590164L114.214145 45.5531616C114.202904 45.4519906 114.16356 45.4014052 114.096112 45.4014052 114.062389 45.4014052 113.989321 45.44637 113.876909 45.5362998zM114.180422 42.3831382C114.180422 42.2819672 114.157939 42.2088993 114.112974 42.1639344 114.079251 42.1189696 114.017424 42.0964871 113.927494 42.0964871L113.236159 42.1470726C112.449274 42.2032787 111.791663 42.3831382 111.263326 42.6866511 110.74623 42.9789227 110.487681 43.3836066 110.487681 43.9007026 110.487681 44.282904 110.622576 44.5864169 110.892365 44.8112412 111.173396 45.0360656 111.544356 45.1484778 112.005246 45.1484778 112.589789 45.1484778 113.101265 44.9686183 113.539672 44.6088993 113.966838 44.2716628 114.180422 43.9288056 114.180422 43.5803279L114.180422 42.3831382zM127.309415 37.2234192C127.534239 37.2234192 127.646651 37.3358314 127.646651 37.5606557L127.646651 38.504918C127.646651 38.7859485 127.522998 38.9096019 127.275691 38.8758782 127.185761 38.864637 127.062108 38.8590164 126.904731 38.8590164 126.736112 38.8590164 126.584356 38.8758782 126.449461 38.9096019 126.15719 38.9770492 126.044778 39.1063232 126.112225 39.2974239 126.179672 39.4772834 126.230258 39.6290398 126.263981 39.7526932 126.297705 39.8651054 126.314567 40.0112412 126.314567 40.1911007 126.314567 40.7081967 126.16281 41.1747073 125.859297 41.5906323 125.567026 42.0065574 125.122998 42.3381733 124.527213 42.5854801 123.94267 42.8215457 123.228852 42.9395785 122.385761 42.9395785 121.688806 42.9395785 121.182951 42.9957845 120.868197 43.1081967 120.564684 43.2206089 120.412927 43.3723653 120.412927 43.563466 120.412927 43.7208431 120.502857 43.8332553 120.682717 43.9007026 120.873817 43.9681499 121.188571 44.0131148 121.626979 44.0355972L123.953911 44.1704918C125.021827 44.2266979 125.814333 44.4683841 126.331429 44.8955504 126.859766 45.3114754 127.123934 45.8735363 127.123934 46.581733 127.123934 47.4473068 126.719251 48.1330211 125.909883 48.6388759 125.111756 49.1559719 123.970773 49.4145199 122.486932 49.4145199 120.924403 49.4145199 119.744075 49.2234192 118.945948 48.8412178 118.159063 48.4702576 117.765621 47.9138173 117.765621 47.171897 117.765621 46.8009368 117.900515 46.4805621 118.170304 46.2107728 118.451335 45.9297424 118.850398 45.6824356 119.367494 45.4688525 119.434941 45.44637 119.468665 45.418267 119.468665 45.3845433 119.468665 45.3508197 119.434941 45.317096 119.367494 45.2833724 118.760468 45.0135831 118.456956 44.6313817 118.456956 44.1367681 118.456956 43.8444965 118.597471 43.5747073 118.878501 43.3274005 119.159532 43.0800937 119.530492 42.8665105 119.991382 42.6866511 120.07007 42.6416862 120.109415 42.6079625 120.109415 42.5854801 120.109415 42.5517564 120.075691 42.5180328 120.008244 42.4843091 118.96281 41.9896956 118.440094 41.2309133 118.440094 40.2079625 118.440094 39.3423888 118.794192 38.6566745 119.502389 38.1508197 120.221827 37.6449649 121.239157 37.3920375 122.554379 37.3920375 123.689742 37.3920375 124.566557 37.6449649 125.184824 38.1508197 125.263513 38.2070258 125.336581 38.2351288 125.404028 38.2351288 125.482717 38.2351288 125.555785 38.2014052 125.623232 38.1339578 125.825574 37.8866511 126.089742 37.6730679 126.415738 37.4932084 126.752974 37.3133489 127.050867 37.2234192 127.309415 37.2234192zM122.368899 41.7929742C123.009649 41.7929742 123.493021 41.652459 123.819016 41.3714286 124.145012 41.0903981 124.308009 40.7081967 124.308009 40.2248244 124.308009 39.7077283 124.145012 39.3030445 123.819016 39.0107728 123.493021 38.70726 123.009649 38.5555035 122.368899 38.5555035 121.761874 38.5555035 121.284122 38.70726 120.935644 39.0107728 120.598407 39.3142857 120.429789 39.7189696 120.429789 40.2248244 120.429789 40.6969555 120.598407 41.0791569 120.935644 41.3714286 121.284122 41.652459 121.761874 41.7929742 122.368899 41.7929742zM121.036815 45.7555035C120.699578 45.7330211 120.373583 45.834192 120.058829 46.0590164 119.755316 46.2838407 119.60356 46.5592506 119.60356 46.8852459 119.60356 47.3461358 119.845246 47.6946136 120.328618 47.9306792 120.823232 48.1667447 121.598876 48.2847775 122.65555 48.2847775 123.476159 48.2847775 124.100047 48.1667447 124.527213 47.9306792 124.954379 47.7058548 125.167963 47.3742389 125.167963 46.9358314 125.167963 46.2838407 124.68459 45.935363 123.717845 45.8903981L121.036815 45.7555035zM130.9763 42.6866511C130.9763 43.147541 131.083091 43.563466 131.296674 43.9344262 131.510258 44.2941452 131.802529 44.5807963 132.173489 44.7943794 132.555691 44.9967213 132.971616 45.0978923 133.421265 45.0978923 133.882155 45.0978923 134.29808 45.0023419 134.66904 44.8112412 135.051241 44.6088993 135.41096 44.2997658 135.748197 43.8838407 135.804403 43.8276347 135.849368 43.7995316 135.883091 43.7995316 135.916815 43.7995316 135.9674 43.8163934 136.034848 43.8501171L137.063419 44.3053864C137.142108 44.3391101 137.181452 44.3896956 137.181452 44.4571429 137.181452 44.4908665 137.15897 44.541452 137.114005 44.6088993 136.60815 45.3395785 136.046089 45.8622951 135.427822 46.1770492 134.820796 46.4805621 134.067635 46.6323185 133.168337 46.6323185 132.314005 46.6323185 131.543981 46.4412178 130.858267 46.0590164 130.183794 45.676815 129.655457 45.1428571 129.273255 44.4571429 128.891054 43.7714286 128.699953 42.9901639 128.699953 42.1133489 128.699953 41.1690867 128.896674 40.3372365 129.290117 39.6177986 129.68356 38.8983607 130.217518 38.3419204 130.891991 37.9484778 131.566464 37.5550351 132.314005 37.3583138 133.134614 37.3583138 133.977705 37.3583138 134.719625 37.5437939 135.360375 37.9147541 136.012365 38.2857143 136.5126 38.8252927 136.861077 39.5334895 137.220796 40.230445 137.400656 41.0622951 137.400656 42.0290398L137.400656 42.0964871C137.400656 42.2088993 137.383794 42.2875878 137.35007 42.3325527 137.316347 42.3775176 137.243279 42.4056206 137.130867 42.4168618L131.16178 42.4168618C131.038126 42.4168618 130.9763 42.5067916 130.9763 42.6866511zM134.972553 41.1690867C135.084965 41.1690867 135.158033 41.1578454 135.191756 41.135363 135.236721 41.1016393 135.259204 41.034192 135.259204 40.9330211 135.259204 40.5733021 135.180515 40.2248244 135.023138 39.8875878 134.865761 39.5503513 134.629696 39.2749415 134.314941 39.0613583 134.011429 38.8477752 133.646089 38.7409836 133.218923 38.7409836 132.555691 38.7409836 132.016112 38.9770492 131.600187 39.4491803 131.195504 39.9100703 130.998782 40.4833724 131.010023 41.1690867L134.972553 41.1690867zM153.199438 46.0590164C153.22192 46.09274 153.233162 46.1433255 153.233162 46.2107728 153.233162 46.2782201 153.210679 46.3400468 153.165714 46.3962529 153.120749 46.4412178 153.058923 46.4637002 152.980234 46.4637002L150.923091 46.4637002C150.833162 46.4637002 150.760094 46.4468384 150.703888 46.4131148 150.658923 46.3681499 150.619578 46.295082 150.585855 46.193911L148.646745 41.2702576C148.613021 41.1915691 148.562436 41.135363 148.494988 41.1016393 148.427541 41.0679157 148.32637 41.0510539 148.191475 41.0510539L146.168056 41.0510539C146.033162 41.0510539 145.965714 41.1128806 145.965714 41.236534L145.965714 46.1096019C145.965714 46.2332553 145.931991 46.323185 145.864543 46.3793911 145.808337 46.4355972 145.712787 46.4637002 145.577892 46.4637002L143.790539 46.4637002C143.666885 46.4637002 143.582576 46.4412178 143.537611 46.3962529 143.492646 46.3400468 143.470164 46.2613583 143.470164 46.1601874L143.470164 34.2388759C143.470164 34.0477752 143.554473 33.9522248 143.723091 33.9522248L148.798501 33.9522248C150.248618 33.9522248 151.37274 34.2444965 152.170867 34.8290398 152.968993 35.4135831 153.368056 36.2454333 153.368056 37.3245902 153.368056 38.1676815 153.143232 38.8702576 152.693583 39.4323185 152.243934 39.9943794 151.681874 40.3934426 151.0074 40.6295082 150.917471 40.6632319 150.894988 40.7362998 150.939953 40.8487119L153.199438 46.0590164zM148.444403 39.3311475C150.006932 39.3311475 150.788197 38.7241218 150.788197 37.5100703 150.788197 36.9030445 150.597096 36.4421546 150.214895 36.1274005 149.843934 35.8126464 149.321218 35.6552693 148.646745 35.6552693L146.269227 35.6552693C146.156815 35.6552693 146.078126 35.6721311 146.033162 35.7058548 145.988197 35.7395785 145.965714 35.8014052 145.965714 35.8913349L145.965714 39.0782201C145.965714 39.1681499 145.982576 39.2355972 146.0163 39.2805621 146.050023 39.3142857 146.10623 39.3311475 146.184918 39.3311475L148.444403 39.3311475zM157.379297 42.6866511C157.379297 43.147541 157.486089 43.563466 157.699672 43.9344262 157.913255 44.2941452 158.205527 44.5807963 158.576487 44.7943794 158.958689 44.9967213 159.374614 45.0978923 159.824262 45.0978923 160.285152 45.0978923 160.701077 45.0023419 161.072037 44.8112412 161.454239 44.6088993 161.813958 44.2997658 162.151194 43.8838407 162.2074 43.8276347 162.252365 43.7995316 162.286089 43.7995316 162.319813 43.7995316 162.370398 43.8163934 162.437845 43.8501171L163.466417 44.3053864C163.545105 44.3391101 163.58445 44.3896956 163.58445 44.4571429 163.58445 44.4908665 163.561967 44.541452 163.517002 44.6088993 163.011148 45.3395785 162.449087 45.8622951 161.83082 46.1770492 161.223794 46.4805621 160.470632 46.6323185 159.571335 46.6323185 158.717002 46.6323185 157.946979 46.4412178 157.261265 46.0590164 156.586792 45.676815 156.058454 45.1428571 155.676253 44.4571429 155.294052 43.7714286 155.102951 42.9901639 155.102951 42.1133489 155.102951 41.1690867 155.299672 40.3372365 155.693115 39.6177986 156.086557 38.8983607 156.620515 38.3419204 157.294988 37.9484778 157.969461 37.5550351 158.717002 37.3583138 159.537611 37.3583138 160.380703 37.3583138 161.122623 37.5437939 161.763372 37.9147541 162.415363 38.2857143 162.915597 38.8252927 163.264075 39.5334895 163.623794 40.230445 163.803653 41.0622951 163.803653 42.0290398L163.803653 42.0964871C163.803653 42.2088993 163.786792 42.2875878 163.753068 42.3325527 163.719344 42.3775176 163.646276 42.4056206 163.533864 42.4168618L157.564778 42.4168618C157.441124 42.4168618 157.379297 42.5067916 157.379297 42.6866511zM161.37555 41.1690867C161.487963 41.1690867 161.56103 41.1578454 161.594754 41.135363 161.639719 41.1016393 161.662201 41.034192 161.662201 40.9330211 161.662201 40.5733021 161.583513 40.2248244 161.426136 39.8875878 161.268759 39.5503513 161.032693 39.2749415 160.717939 39.0613583 160.414426 38.8477752 160.049087 38.7409836 159.62192 38.7409836 158.958689 38.7409836 158.41911 38.9770492 158.003185 39.4491803 157.598501 39.9100703 157.40178 40.4833724 157.413021 41.1690867L161.37555 41.1690867zM170.700141 37.5269321C170.88 37.5269321 170.96993 37.6112412 170.96993 37.7798595L170.96993 38.8421546C170.96993 38.9882904 170.885621 39.0613583 170.717002 39.0613583L169.148852 39.0613583C169.03644 39.0613583 168.980234 39.1175644 168.980234 39.2299766L168.980234 46.1770492C168.980234 46.3681499 168.895925 46.4637002 168.727307 46.4637002L167.024262 46.4637002C166.866885 46.4637002 166.788197 46.3737705 166.788197 46.193911L166.788197 39.2131148C166.788197 39.1119438 166.748852 39.0613583 166.670164 39.0613583L165.304356 39.0613583C165.135738 39.0613583 165.051429 38.9882904 165.051429 38.8421546L165.051429 37.7798595C165.051429 37.6112412 165.141358 37.5269321 165.321218 37.5269321L166.602717 37.5269321C166.72637 37.5269321 166.788197 37.4538642 166.788197 37.3077283L166.788197 36.2117096C166.788197 35.4922717 166.990539 34.9358314 167.395222 34.5423888 167.799906 34.1489461 168.373208 33.9522248 169.115129 33.9522248L170.717002 33.9522248C170.930585 33.9522248 171.037377 34.0533958 171.037377 34.2557377L171.054239 35.2C171.054239 35.2674473 171.031756 35.3236534 170.986792 35.3686183 170.953068 35.4135831 170.896862 35.4360656 170.818173 35.4360656L169.823326 35.4360656C169.531054 35.4360656 169.30623 35.5372365 169.148852 35.7395785 169.002717 35.9306792 168.929649 36.1892272 168.929649 36.5152225L168.929649 37.3583138C168.929649 37.470726 168.991475 37.5269321 169.115129 37.5269321L170.700141 37.5269321zM174.612084 35.8744731C174.612084 36.0093677 174.578361 36.1105386 174.510913 36.1779859 174.454707 36.234192 174.353536 36.2622951 174.2074 36.2622951L172.672974 36.2622951C172.549321 36.2622951 172.465012 36.234192 172.420047 36.1779859 172.375082 36.1217799 172.3526 36.0374707 172.3526 35.9250585L172.3526 34.2725995C172.3526 34.0590164 172.442529 33.9522248 172.622389 33.9522248L174.359157 33.9522248C174.437845 33.9522248 174.499672 33.9803279 174.544637 34.036534 174.589602 34.0814988 174.612084 34.1489461 174.612084 34.2388759L174.612084 35.8744731zM174.578361 46.09274C174.578361 46.2276347 174.544637 46.323185 174.47719 46.3793911 174.420984 46.4355972 174.319813 46.4637002 174.173677 46.4637002L172.706698 46.4637002C172.583044 46.4637002 172.498735 46.4412178 172.45377 46.3962529 172.408806 46.3512881 172.386323 46.2725995 172.386323 46.1601874L172.386323 37.8135831C172.386323 37.6224824 172.470632 37.5269321 172.639251 37.5269321L174.342295 37.5269321C174.499672 37.5269321 174.578361 37.6168618 174.578361 37.7967213L174.578361 46.09274zM192.862951 37.5269321C192.952881 37.5269321 193.020328 37.5606557 193.065293 37.628103 193.110258 37.6955504 193.115878 37.7742389 193.082155 37.8641686L190.384262 46.2107728C190.339297 46.3793911 190.226885 46.4637002 190.047026 46.4637002L188.849836 46.4637002C188.647494 46.4637002 188.5126 46.3681499 188.445152 46.1770492L186.809555 40.9667447C186.775831 40.8655738 186.736487 40.8149883 186.691522 40.8149883 186.646557 40.8149883 186.607213 40.8655738 186.573489 40.9667447L184.954754 46.2107728C184.932272 46.3007026 184.892927 46.3681499 184.836721 46.4131148 184.791756 46.4468384 184.718689 46.4637002 184.617518 46.4637002L183.369742 46.4637002C183.156159 46.4637002 183.026885 46.3681499 182.98192 46.1770492L180.284028 37.8810304C180.272787 37.858548 180.267166 37.8192037 180.267166 37.7629977 180.267166 37.6955504 180.289649 37.6393443 180.334614 37.5943794 180.379578 37.5494145 180.441405 37.5269321 180.520094 37.5269321L182.155691 37.5269321C182.245621 37.5269321 182.318689 37.5494145 182.374895 37.5943794 182.442342 37.6393443 182.481686 37.701171 182.492927 37.7798595L184.17911 43.1587822C184.190351 43.2037471 184.201593 43.2430913 184.212834 43.276815 184.235316 43.3105386 184.257799 43.3274005 184.280281 43.3274005 184.336487 43.3274005 184.381452 43.2655738 184.415176 43.1419204L186.050773 37.7629977C186.106979 37.6056206 186.21377 37.5269321 186.371148 37.5269321L187.585199 37.5269321C187.742576 37.5269321 187.849368 37.6112412 187.905574 37.7798595L189.574895 43.1587822C189.608618 43.2711944 189.647963 43.3274005 189.692927 43.3274005 189.737892 43.3274005 189.777237 43.2655738 189.81096 43.1419204L191.446557 37.7629977C191.46904 37.6955504 191.508384 37.6393443 191.56459 37.5943794 191.632037 37.5494145 191.705105 37.5269321 191.783794 37.5269321L192.862951 37.5269321zM197.137986 35.8744731C197.137986 36.0093677 197.104262 36.1105386 197.036815 36.1779859 196.980609 36.234192 196.879438 36.2622951 196.733302 36.2622951L195.198876 36.2622951C195.075222 36.2622951 194.990913 36.234192 194.945948 36.1779859 194.900984 36.1217799 194.878501 36.0374707 194.878501 35.9250585L194.878501 34.2725995C194.878501 34.0590164 194.968431 33.9522248 195.14829 33.9522248L196.885059 33.9522248C196.963747 33.9522248 197.025574 33.9803279 197.070539 34.036534 197.115504 34.0814988 197.137986 34.1489461 197.137986 34.2388759L197.137986 35.8744731zM197.104262 46.09274C197.104262 46.2276347 197.070539 46.323185 197.003091 46.3793911 196.946885 46.4355972 196.845714 46.4637002 196.699578 46.4637002L195.2326 46.4637002C195.108946 46.4637002 195.024637 46.4412178 194.979672 46.3962529 194.934707 46.3512881 194.912225 46.2725995 194.912225 46.1601874L194.912225 37.8135831C194.912225 37.6224824 194.996534 37.5269321 195.165152 37.5269321L196.868197 37.5269321C197.025574 37.5269321 197.104262 37.6168618 197.104262 37.7967213L197.104262 46.09274zM202.835035 39.0613583C202.722623 39.0613583 202.666417 39.123185 202.666417 39.2468384L202.666417 43.7489461C202.666417 44.1761124 202.750726 44.4796253 202.919344 44.6594848 203.099204 44.828103 203.385855 44.9124122 203.779297 44.9124122L204.774145 44.9124122C204.841593 44.9124122 204.897799 44.9348946 204.942763 44.9798595 204.987728 45.0248244 205.010211 45.0810304 205.010211 45.1484778L204.993349 46.0252927C204.993349 46.2163934 204.886557 46.3288056 204.672974 46.3625293 204.26829 46.4299766 203.650023 46.4637002 202.818173 46.4637002 202.05377 46.4637002 201.469227 46.2894614 201.064543 45.9409836 200.671101 45.5812646 200.474379 45.0416862 200.474379 44.3222482L200.474379 39.2805621C200.474379 39.1344262 200.406932 39.0613583 200.272037 39.0613583L199.142295 39.0613583C198.962436 39.0613583 198.872506 38.9770492 198.872506 38.8084309L198.872506 37.7461358C198.872506 37.6 198.956815 37.5269321 199.125433 37.5269321L200.373208 37.5269321C200.474379 37.5269321 200.524965 37.470726 200.524965 37.3583138L200.744169 34.7615925C200.75541 34.6604215 200.777892 34.5929742 200.811616 34.5592506 200.84534 34.5142857 200.901546 34.4918033 200.980234 34.4918033L202.480937 34.4918033C202.548384 34.4918033 202.60459 34.5199063 202.649555 34.5761124 202.69452 34.6210773 202.717002 34.6885246 202.717002 34.7784543L202.717002 37.3583138C202.717002 37.4594848 202.767588 37.5100703 202.868759 37.5100703L204.774145 37.5100703C204.942763 37.5100703 205.027073 37.5887588 205.027073 37.7461358L205.027073 38.8084309C205.027073 38.9770492 204.931522 39.0613583 204.740422 39.0613583L202.835035 39.0613583zM207.252834 46.4637002C207.039251 46.4637002 206.932459 46.3625293 206.932459 46.1601874L206.932459 34.2388759C206.932459 34.0477752 207.016768 33.9522248 207.185386 33.9522248L208.854707 33.9522248C209.000843 33.9522248 209.073911 34.036534 209.073911 34.2051522L209.073911 38.5892272C209.073911 38.6566745 209.090773 38.6960187 209.124496 38.70726 209.15822 38.7185012 209.203185 38.7016393 209.259391 38.6566745 209.821452 38.1845433 210.321686 37.8529274 210.760094 37.6618267 211.209742 37.4594848 211.693115 37.3583138 212.210211 37.3583138 213.075785 37.3583138 213.739016 37.5943794 214.199906 38.0665105 214.660796 38.5274005 214.891241 39.1737705 214.891241 40.0056206L214.891241 46.1096019C214.891241 46.3456674 214.773208 46.4637002 214.537143 46.4637002L212.985855 46.4637002C212.873443 46.4637002 212.794754 46.4412178 212.749789 46.3962529 212.716066 46.3512881 212.699204 46.2725995 212.699204 46.1601874L212.699204 40.359719C212.699204 39.9213115 212.581171 39.5840749 212.345105 39.3480094 212.10904 39.1007026 211.760562 38.9770492 211.299672 38.9770492 210.90623 38.9770492 210.546511 39.0669789 210.220515 39.2468384 209.89452 39.4266979 209.52918 39.7189696 209.124496 40.1236534L209.124496 46.1264637C209.124496 46.2501171 209.096393 46.3400468 209.040187 46.3962529 208.983981 46.4412178 208.888431 46.4637002 208.753536 46.4637002L207.252834 46.4637002zM226.471569 33.7836066C227.292178 33.7836066 228.05096 33.9466042 228.747916 34.2725995 229.456112 34.5873536 230.035035 35.0201405 230.484684 35.5709602 230.945574 36.1217799 231.232225 36.7344262 231.344637 37.4088993 231.355878 37.4651054 231.361499 37.5325527 231.361499 37.6112412 231.361499 37.6786885 231.344637 37.7236534 231.310913 37.7461358 231.288431 37.7686183 231.243466 37.7854801 231.176019 37.7967213L229.25377 37.9316159C229.175082 37.9316159 229.118876 37.9203747 229.085152 37.8978923 229.06267 37.8641686 229.040187 37.7967213 229.017705 37.6955504 228.88281 37.0435597 228.60178 36.5264637 228.174614 36.1442623 227.747447 35.7508197 227.202248 35.5540984 226.539016 35.5540984 224.526838 35.5540984 223.520749 37.0941452 223.520749 40.1742389 223.520749 41.7367681 223.773677 42.8946136 224.279532 43.6477752 224.785386 44.3896956 225.55541 44.7606557 226.589602 44.7606557 227.30904 44.7606557 227.910445 44.5864169 228.393817 44.2379391 228.888431 43.8782201 229.287494 43.304918 229.591007 42.5180328 229.624731 42.428103 229.725902 42.4 229.89452 42.4337237L231.327775 42.7372365C231.383981 42.759719 231.428946 42.7990632 231.46267 42.8552693 231.496393 42.9002342 231.502014 42.9845433 231.479532 43.1081967 231.344637 43.6140515 231.069227 44.1367681 230.653302 44.6763466 230.248618 45.2159251 229.692178 45.676815 228.983981 46.0590164 228.275785 46.4412178 227.443934 46.6323185 226.488431 46.6323185 225.353068 46.6323185 224.363841 46.3681499 223.520749 45.8398126 222.677658 45.3002342 222.031288 44.541452 221.581639 43.563466 221.131991 42.5742389 220.907166 41.4332553 220.907166 40.1405152 220.907166 38.836534 221.131991 37.7067916 221.581639 36.7512881 222.031288 35.7957845 222.672037 35.0651054 223.503888 34.5592506 224.346979 34.0421546 225.336206 33.7836066 226.471569 33.7836066zM237.545293 46.6323185C236.679719 46.6323185 235.909696 46.4412178 235.235222 46.0590164 234.560749 45.6655738 234.038033 45.1203747 233.667073 44.4234192 233.296112 43.7264637 233.110632 42.9339578 233.110632 42.0459016 233.110632 41.135363 233.301733 40.3259953 233.683934 39.6177986 234.066136 38.8983607 234.594473 38.3419204 235.268946 37.9484778 235.943419 37.5550351 236.707822 37.3583138 237.562155 37.3583138 238.427728 37.3583138 239.197752 37.5606557 239.872225 37.9653396 240.546698 38.3587822 241.069415 38.9096019 241.440375 39.6177986 241.811335 40.3259953 241.996815 41.1297424 241.996815 42.0290398 241.996815 42.917096 241.805714 43.7096019 241.423513 44.4065574 241.052553 45.1035129 240.529836 45.6487119 239.855363 46.0421546 239.18089 46.4355972 238.410867 46.6323185 237.545293 46.6323185zM237.562155 45.1316159C238.281593 45.1316159 238.826792 44.8618267 239.197752 44.3222482 239.579953 43.7826698 239.771054 43.0070258 239.771054 41.9953162 239.771054 40.9723653 239.579953 40.1854801 239.197752 39.6346604 238.81555 39.0838407 238.270351 38.8084309 237.562155 38.8084309 236.853958 38.8084309 236.303138 39.0838407 235.909696 39.6346604 235.527494 40.1854801 235.336393 40.9723653 235.336393 41.9953162 235.336393 43.0070258 235.527494 43.7826698 235.909696 44.3222482 236.303138 44.8618267 236.853958 45.1316159 237.562155 45.1316159zM244.30089 46.4637002C244.188478 46.4637002 244.109789 46.4412178 244.064824 46.3962529 244.019859 46.3512881 243.997377 46.2725995 243.997377 46.1601874L243.997377 37.8135831C243.997377 37.6224824 244.076066 37.5269321 244.233443 37.5269321L245.919625 37.5269321C246.065761 37.5269321 246.138829 37.6112412 246.138829 37.7798595L246.138829 38.6566745C246.138829 38.7241218 246.155691 38.763466 246.189415 38.7747073 246.223138 38.7859485 246.268103 38.7690867 246.324309 38.7241218 246.852646 38.2632319 247.341639 37.9203747 247.791288 37.6955504 248.252178 37.470726 248.746792 37.3583138 249.275129 37.3583138 250.106979 37.3583138 250.75897 37.6 251.231101 38.0833724 251.714473 38.5555035 251.956159 39.1850117 251.956159 39.971897L251.956159 46.1096019C251.956159 46.3456674 251.838126 46.4637002 251.602061 46.4637002L250.050773 46.4637002C249.938361 46.4637002 249.859672 46.4412178 249.814707 46.3962529 249.780984 46.3512881 249.764122 46.2725995 249.764122 46.1601874L249.764122 40.359719C249.764122 39.9213115 249.640468 39.5840749 249.393162 39.3480094 249.157096 39.1007026 248.808618 38.9770492 248.347728 38.9770492 247.954286 38.9770492 247.594567 39.0669789 247.268571 39.2468384 246.953817 39.4266979 246.594098 39.7189696 246.189415 40.1236534L246.189415 46.1264637C246.189415 46.2501171 246.161311 46.3400468 246.105105 46.3962529 246.048899 46.4412178 245.947728 46.4637002 245.801593 46.4637002L244.30089 46.4637002zM259.27082 37.5269321C259.450679 37.5269321 259.540609 37.6112412 259.540609 37.7798595L259.540609 38.8421546C259.540609 38.9882904 259.4563 39.0613583 259.287681 39.0613583L257.719532 39.0613583C257.607119 39.0613583 257.550913 39.1175644 257.550913 39.2299766L257.550913 46.1770492C257.550913 46.3681499 257.466604 46.4637002 257.297986 46.4637002L255.594941 46.4637002C255.437564 46.4637002 255.358876 46.3737705 255.358876 46.193911L255.358876 39.2131148C255.358876 39.1119438 255.319532 39.0613583 255.240843 39.0613583L253.875035 39.0613583C253.706417 39.0613583 253.622108 38.9882904 253.622108 38.8421546L253.622108 37.7798595C253.622108 37.6112412 253.712037 37.5269321 253.891897 37.5269321L255.173396 37.5269321C255.297049 37.5269321 255.358876 37.4538642 255.358876 37.3077283L255.358876 36.2117096C255.358876 35.4922717 255.561218 34.9358314 255.965902 34.5423888 256.370585 34.1489461 256.943888 33.9522248 257.685808 33.9522248L259.287681 33.9522248C259.501265 33.9522248 259.608056 34.0533958 259.608056 34.2557377L259.624918 35.2C259.624918 35.2674473 259.602436 35.3236534 259.557471 35.3686183 259.523747 35.4135831 259.467541 35.4360656 259.388852 35.4360656L258.394005 35.4360656C258.101733 35.4360656 257.876909 35.5372365 257.719532 35.7395785 257.573396 35.9306792 257.500328 36.1892272 257.500328 36.5152225L257.500328 37.3583138C257.500328 37.470726 257.562155 37.5269321 257.685808 37.5269321L259.27082 37.5269321zM263.182763 35.8744731C263.182763 36.0093677 263.14904 36.1105386 263.081593 36.1779859 263.025386 36.234192 262.924215 36.2622951 262.77808 36.2622951L261.243653 36.2622951C261.12 36.2622951 261.035691 36.234192 260.990726 36.1779859 260.945761 36.1217799 260.923279 36.0374707 260.923279 35.9250585L260.923279 34.2725995C260.923279 34.0590164 261.013208 33.9522248 261.193068 33.9522248L262.929836 33.9522248C263.008525 33.9522248 263.070351 33.9803279 263.115316 34.036534 263.160281 34.0814988 263.182763 34.1489461 263.182763 34.2388759L263.182763 35.8744731zM263.14904 46.09274C263.14904 46.2276347 263.115316 46.323185 263.047869 46.3793911 262.991663 46.4355972 262.890492 46.4637002 262.744356 46.4637002L261.277377 46.4637002C261.153724 46.4637002 261.069415 46.4412178 261.02445 46.3962529 260.979485 46.3512881 260.957002 46.2725995 260.957002 46.1601874L260.957002 37.8135831C260.957002 37.6224824 261.041311 37.5269321 261.20993 37.5269321L262.912974 37.5269321C263.070351 37.5269321 263.14904 37.6168618 263.14904 37.7967213L263.14904 46.09274zM271.872974 46.4637002C271.659391 46.4637002 271.5526 46.3625293 271.5526 46.1601874L271.5526 45.6037471C271.5526 45.5025761 271.524496 45.4519906 271.46829 45.4519906 271.434567 45.4519906 271.389602 45.4800937 271.333396 45.5362998 271.0074 45.8510539 270.642061 46.1152225 270.237377 46.3288056 269.843934 46.5311475 269.360562 46.6323185 268.78726 46.6323185 268.090304 46.6323185 267.472037 46.4637002 266.932459 46.1264637 266.392881 45.7779859 265.965714 45.2665105 265.65096 44.5920375 265.347447 43.9063232 265.195691 43.0688525 265.195691 42.0796253 265.195691 41.1578454 265.358689 40.3372365 265.684684 39.6177986 266.02192 38.8983607 266.47719 38.3419204 267.050492 37.9484778 267.623794 37.5550351 268.264543 37.3583138 268.97274 37.3583138 269.444871 37.3583138 269.855176 37.4370023 270.203653 37.5943794 270.563372 37.7405152 270.90623 37.959719 271.232225 38.2519906 271.288431 38.3081967 271.350258 38.3362998 271.417705 38.3362998 271.485152 38.3362998 271.518876 38.2632319 271.518876 38.117096L271.518876 34.2220141C271.518876 34.0421546 271.597564 33.9522248 271.754941 33.9522248L273.457986 33.9522248C273.626604 33.9522248 273.710913 34.0477752 273.710913 34.2388759L273.710913 46.1433255C273.710913 46.2557377 273.68281 46.3400468 273.626604 46.3962529 273.581639 46.4412178 273.49171 46.4637002 273.356815 46.4637002L271.872974 46.4637002zM271.518876 39.7358314C271.215363 39.4210773 270.917471 39.1906323 270.625199 39.0444965 270.344169 38.8871194 270.023794 38.8084309 269.664075 38.8084309 268.989602 38.8084309 268.444403 39.0838407 268.028478 39.6346604 267.623794 40.1742389 267.421452 40.9779859 267.421452 42.0459016 267.421452 43.1250585 267.618173 43.923185 268.011616 44.440281 268.4163 44.957377 268.950258 45.2159251 269.613489 45.2159251 269.961967 45.2159251 270.282342 45.1372365 270.574614 44.9798595 270.866885 44.8112412 271.09733 44.5976581 271.265948 44.3391101 271.434567 44.0805621 271.518876 43.8163934 271.518876 43.5466042L271.518876 39.7358314zM278.001311 42.6866511C278.001311 43.147541 278.108103 43.563466 278.321686 43.9344262 278.535269 44.2941452 278.827541 44.5807963 279.198501 44.7943794 279.580703 44.9967213 279.996628 45.0978923 280.446276 45.0978923 280.907166 45.0978923 281.323091 45.0023419 281.694052 44.8112412 282.076253 44.6088993 282.435972 44.2997658 282.773208 43.8838407 282.829415 43.8276347 282.874379 43.7995316 282.908103 43.7995316 282.941827 43.7995316 282.992412 43.8163934 283.059859 43.8501171L284.088431 44.3053864C284.167119 44.3391101 284.206464 44.3896956 284.206464 44.4571429 284.206464 44.4908665 284.183981 44.541452 284.139016 44.6088993 283.633162 45.3395785 283.071101 45.8622951 282.452834 46.1770492 281.845808 46.4805621 281.092646 46.6323185 280.193349 46.6323185 279.339016 46.6323185 278.568993 46.4412178 277.883279 46.0590164 277.208806 45.676815 276.680468 45.1428571 276.298267 44.4571429 275.916066 43.7714286 275.724965 42.9901639 275.724965 42.1133489 275.724965 41.1690867 275.921686 40.3372365 276.315129 39.6177986 276.708571 38.8983607 277.242529 38.3419204 277.917002 37.9484778 278.591475 37.5550351 279.339016 37.3583138 280.159625 37.3583138 281.002717 37.3583138 281.744637 37.5437939 282.385386 37.9147541 283.037377 38.2857143 283.537611 38.8252927 283.886089 39.5334895 284.245808 40.230445 284.425667 41.0622951 284.425667 42.0290398L284.425667 42.0964871C284.425667 42.2088993 284.408806 42.2875878 284.375082 42.3325527 284.341358 42.3775176 284.26829 42.4056206 284.155878 42.4168618L278.186792 42.4168618C278.063138 42.4168618 278.001311 42.5067916 278.001311 42.6866511zM281.997564 41.1690867C282.109977 41.1690867 282.183044 41.1578454 282.216768 41.135363 282.261733 41.1016393 282.284215 41.034192 282.284215 40.9330211 282.284215 40.5733021 282.205527 40.2248244 282.04815 39.8875878 281.890773 39.5503513 281.654707 39.2749415 281.339953 39.0613583 281.03644 38.8477752 280.671101 38.7409836 280.243934 38.7409836 279.580703 38.7409836 279.041124 38.9770492 278.625199 39.4491803 278.220515 39.9100703 278.023794 40.4833724 278.035035 41.1690867L281.997564 41.1690867zM286.66829 46.4637002C286.555878 46.4637002 286.47719 46.4412178 286.432225 46.3962529 286.38726 46.3512881 286.364778 46.2725995 286.364778 46.1601874L286.364778 37.8135831C286.364778 37.6224824 286.443466 37.5269321 286.600843 37.5269321L288.287026 37.5269321C288.433162 37.5269321 288.50623 37.6112412 288.50623 37.7798595L288.50623 38.6566745C288.50623 38.7241218 288.523091 38.763466 288.556815 38.7747073 288.590539 38.7859485 288.635504 38.7690867 288.69171 38.7241218 289.220047 38.2632319 289.70904 37.9203747 290.158689 37.6955504 290.619578 37.470726 291.114192 37.3583138 291.642529 37.3583138 292.474379 37.3583138 293.12637 37.6 293.598501 38.0833724 294.081874 38.5555035 294.32356 39.1850117 294.32356 39.971897L294.32356 46.1096019C294.32356 46.3456674 294.205527 46.4637002 293.969461 46.4637002L292.418173 46.4637002C292.305761 46.4637002 292.227073 46.4412178 292.182108 46.3962529 292.148384 46.3512881 292.131522 46.2725995 292.131522 46.1601874L292.131522 40.359719C292.131522 39.9213115 292.007869 39.5840749 291.760562 39.3480094 291.524496 39.1007026 291.176019 38.9770492 290.715129 38.9770492 290.321686 38.9770492 289.961967 39.0669789 289.635972 39.2468384 289.321218 39.4266979 288.961499 39.7189696 288.556815 40.1236534L288.556815 46.1264637C288.556815 46.2501171 288.528712 46.3400468 288.472506 46.3962529 288.4163 46.4412178 288.315129 46.4637002 288.168993 46.4637002L286.66829 46.4637002zM300.626511 37.3583138C301.570773 37.3583138 302.357658 37.5887588 302.987166 38.0496487 303.616674 38.5105386 304.066323 39.0782201 304.336112 39.7526932L304.369836 39.9044496C304.369836 39.9943794 304.302389 40.0505855 304.167494 40.0730679L302.683653 40.258548 302.616206 40.2754098C302.537518 40.2754098 302.481311 40.2192037 302.447588 40.1067916 302.177799 39.6683841 301.919251 39.3480094 301.671944 39.1456674 301.435878 38.9320843 301.115504 38.8252927 300.71082 38.8252927 300.013864 38.8252927 299.463044 39.1007026 299.058361 39.6515222 298.653677 40.2023419 298.451335 40.9836066 298.451335 41.9953162 298.451335 43.0295082 298.659297 43.8220141 299.075222 44.3728337 299.491148 44.9124122 300.07007 45.1822014 300.811991 45.1822014 301.295363 45.1822014 301.700047 45.058548 302.026042 44.8112412 302.352037 44.5639344 302.666792 44.1873536 302.970304 43.6814988 303.004028 43.636534 303.037752 43.6084309 303.071475 43.5971897 303.11644 43.5859485 303.172646 43.5915691 303.240094 43.6140515L304.302389 43.9007026C304.414801 43.9344262 304.448525 44.0299766 304.40356 44.1873536 304.122529 44.8393443 303.66726 45.4126464 303.037752 45.90726 302.408244 46.3906323 301.604496 46.6323185 300.626511 46.6323185 299.783419 46.6323185 299.024637 46.4412178 298.350164 46.0590164 297.686932 45.6655738 297.164215 45.1203747 296.782014 44.4234192 296.411054 43.7264637 296.225574 42.9283372 296.225574 42.0290398 296.225574 41.1185012 296.416674 40.3091335 296.798876 39.6009368 297.181077 38.89274 297.703794 38.3419204 298.367026 37.9484778 299.041499 37.5550351 299.79466 37.3583138 300.626511 37.3583138zM308.076815 42.6866511C308.076815 43.147541 308.183607 43.563466 308.39719 43.9344262 308.610773 44.2941452 308.903044 44.5807963 309.274005 44.7943794 309.656206 44.9967213 310.072131 45.0978923 310.52178 45.0978923 310.98267 45.0978923 311.398595 45.0023419 311.769555 44.8112412 312.151756 44.6088993 312.511475 44.2997658 312.848712 43.8838407 312.904918 43.8276347 312.949883 43.7995316 312.983607 43.7995316 313.01733 43.7995316 313.067916 43.8163934 313.135363 43.8501171L314.163934 44.3053864C314.242623 44.3391101 314.281967 44.3896956 314.281967 44.4571429 314.281967 44.4908665 314.259485 44.541452 314.21452 44.6088993 313.708665 45.3395785 313.146604 45.8622951 312.528337 46.1770492 311.921311 46.4805621 311.16815 46.6323185 310.268852 46.6323185 309.41452 46.6323185 308.644496 46.4412178 307.958782 46.0590164 307.284309 45.676815 306.755972 45.1428571 306.37377 44.4571429 305.991569 43.7714286 305.800468 42.9901639 305.800468 42.1133489 305.800468 41.1690867 305.99719 40.3372365 306.390632 39.6177986 306.784075 38.8983607 307.318033 38.3419204 307.992506 37.9484778 308.666979 37.5550351 309.41452 37.3583138 310.235129 37.3583138 311.07822 37.3583138 311.820141 37.5437939 312.46089 37.9147541 313.112881 38.2857143 313.613115 38.8252927 313.961593 39.5334895 314.321311 40.230445 314.501171 41.0622951 314.501171 42.0290398L314.501171 42.0964871C314.501171 42.2088993 314.484309 42.2875878 314.450585 42.3325527 314.416862 42.3775176 314.343794 42.4056206 314.231382 42.4168618L308.262295 42.4168618C308.138642 42.4168618 308.076815 42.5067916 308.076815 42.6866511zM312.073068 41.1690867C312.18548 41.1690867 312.258548 41.1578454 312.292272 41.135363 312.337237 41.1016393 312.359719 41.034192 312.359719 40.9330211 312.359719 40.5733021 312.28103 40.2248244 312.123653 39.8875878 311.966276 39.5503513 311.730211 39.2749415 311.415457 39.0613583 311.111944 38.8477752 310.746604 38.7409836 310.319438 38.7409836 309.656206 38.7409836 309.116628 38.9770492 308.700703 39.4491803 308.296019 39.9100703 308.099297 40.4833724 308.110539 41.1690867L312.073068 41.1690867zM67.3244028 23.7474473C67.5762061 23.7474473 67.7021077 23.84637 67.7021077 24.0442155L67.7021077 25.8787822C67.7021077 25.9866979 67.6661358 26.0766276 67.594192 26.1485714 67.5222482 26.2025293 67.4233255 26.2295082 67.2974239 26.2295082L57.477096 26.2295082C57.2252927 26.2295082 57.0993911 26.1215925 57.0993911 25.9057611L57.0993911 24.0442155C57.0993911 23.84637 57.2162998 23.7474473 57.4501171 23.7474473L60.6606089 23.7474473C60.8224824 23.7474473 60.9034192 23.6934895 60.9034192 23.5855738L60.9034192 9.85330211C60.9034192 9.72740047 60.8764403 9.6464637 60.8224824 9.6104918 60.7865105 9.57451991 60.7145667 9.57451991 60.6066511 9.6104918L57.5040749 10.6896487C57.468103 10.7076347 57.4231382 10.7166276 57.3691803 10.7166276 57.1713349 10.7166276 57.0724122 10.581733 57.0724122 10.3119438L57.0724122 9.0169555C57.0724122 8.87306792 57.0903981 8.7741452 57.12637 8.72018735 57.1623419 8.66622951 57.2432787 8.60327869 57.3691803 8.53133489L61.5509133 6.45395785C61.7487588 6.3640281 61.9016393 6.30107728 62.009555 6.26510539 62.1354567 6.22913349 62.2883372 6.21114754 62.4681967 6.21114754L63.8441218 6.21114754C64.0599532 6.21114754 64.1678689 6.33704918 64.1678689 6.58885246L64.1678689 23.504637C64.1678689 23.6665105 64.2308197 23.7474473 64.3567213 23.7474473L67.3244028 23.7474473zM81.8506792 5.94135831C83.1816393 5.94135831 84.3687119 6.17517564 85.411897 6.6428103 86.455082 7.11044496 87.2644496 7.76693208 87.84 8.61227166 88.4155504 9.45761124 88.7033255 10.4108665 88.7033255 11.4720375 88.7033255 12.2814052 88.4874941 13.0098361 88.0558314 13.6573302 87.6421546 14.3048244 86.9676815 14.9433255 86.0324122 15.5728337 85.8885246 15.6627635 85.8165808 15.7437002 85.8165808 15.815644 85.8165808 15.8875878 85.8795316 15.9505386 86.0054333 16.0044965 87.2464637 16.5440749 88.1547541 17.209555 88.7303044 18.0009368 89.3058548 18.7923185 89.59363 19.7275878 89.59363 20.8067447 89.59363 21.9758314 89.2698829 22.9920375 88.6223888 23.855363 87.9748946 24.7007026 87.0576112 25.3571897 85.8705386 25.8248244 84.683466 26.2744731 83.316534 26.4992974 81.7697424 26.4992974 79.4855269 26.4992974 77.6689461 26.0406557 76.32 25.1233724 74.9710539 24.188103 74.2965808 22.9021077 74.2965808 21.2653864 74.2965808 20.3121311 74.5393911 19.4757845 75.0250117 18.7563466 75.5106323 18.0189227 76.3020141 17.3084778 77.3991569 16.6250117 77.6149883 16.4811241 77.722904 16.3822014 77.722904 16.3282436 77.722904 16.2562998 77.6239813 16.16637 77.4261358 16.0584543 76.6167681 15.5728337 75.978267 14.9972834 75.5106323 14.3318033 75.0609836 13.6483372 74.8361593 12.8209836 74.8361593 11.8497424 74.8361593 10.7525995 75.1239344 9.75437939 75.6994848 8.85508197 76.2930211 7.95578454 77.1203747 7.24533958 78.1815457 6.72374707 79.2607026 6.20215457 80.4837471 5.94135831 81.8506792 5.94135831zM81.904637 8.20758782C80.7715222 8.20758782 79.82726 8.52234192 79.0718501 9.15185012 78.3164403 9.78135831 77.9387354 10.57274 77.9387354 11.5259953 77.9387354 12.2454333 78.1455738 12.8479625 78.5592506 13.3335831 78.9729274 13.8012178 79.5934426 14.1339578 80.4207963 14.3318033L82.9837939 14.9523185C83.3255269 15.0422482 83.7302108 14.9253396 84.1978454 14.6015925 84.6654801 14.2598595 85.061171 13.8012178 85.384918 13.2256674 85.7266511 12.6321311 85.8975176 12.0475878 85.8975176 11.4720375 85.8975176 10.5187822 85.5377986 9.73639344 84.8183607 9.12487119 84.0989227 8.51334895 83.1276815 8.20758782 81.904637 8.20758782zM81.9316159 24.2330679C83.298548 24.2330679 84.3777049 23.9452927 85.1690867 23.3697424 85.9784543 22.7762061 86.3831382 21.9848244 86.3831382 20.9955972 86.3831382 20.2401874 86.1762998 19.6286651 85.762623 19.1610304 85.3489461 18.6754098 84.6744731 18.3156909 83.7392037 18.0818735L80.5287119 17.2455269C80.4747541 17.227541 80.3848244 17.218548 80.2589227 17.218548 79.8632319 17.218548 79.4135831 17.3894145 78.9099766 17.7311475 78.424356 18.0548946 78.0106792 18.4955504 77.6689461 19.0531148 77.3272131 19.6106792 77.1563466 20.2132084 77.1563466 20.8607026 77.1563466 21.9218735 77.5610304 22.7492272 78.3703981 23.3427635 79.1797658 23.9362998 80.3668384 24.2330679 81.9316159 24.2330679zM99.5717096 5.94135831C101.064543 5.94135831 102.395504 6.35503513 103.56459 7.18238876 104.733677 7.99175644 105.65096 9.17882904 106.31644 10.7436066 106.98192 12.2903981 107.31466 14.1339578 107.31466 16.2742857 107.31466 18.3966276 106.98192 20.2311944 106.31644 21.7779859 105.65096 23.3067916 104.733677 24.4758782 103.56459 25.2852459 102.395504 26.0766276 101.05555 26.4723185 99.5447307 26.4723185 98.033911 26.4723185 96.6939578 26.0766276 95.5248712 25.2852459 94.3557845 24.4758782 93.4385012 23.3067916 92.7730211 21.7779859 92.107541 20.2491803 91.7748009 18.4236066 91.7748009 16.3012646 91.7748009 14.1609368 92.107541 12.3083841 92.7730211 10.7436066 93.4564871 9.17882904 94.3827635 7.99175644 95.5518501 7.18238876 96.7389227 6.35503513 98.0788759 5.94135831 99.5717096 5.94135831zM99.5717096 24.0711944C101.010585 24.0711944 102.107728 23.4506792 102.863138 22.2096487 103.618548 20.9506323 103.996253 18.972178 103.996253 16.2742857 103.996253 10.9684309 102.512412 8.31550351 99.5447307 8.31550351 98.1238407 8.31550351 97.0266979 8.96299766 96.2533021 10.2579859 95.4799063 11.5529742 95.0932084 13.5584075 95.0932084 16.2742857 95.0932084 18.954192 95.4799063 20.9236534 96.2533021 22.1826698 97.0266979 23.4416862 98.1328337 24.0711944 99.5717096 24.0711944zM117.494707 5.94135831C118.987541 5.94135831 120.318501 6.35503513 121.487588 7.18238876 122.656674 7.99175644 123.573958 9.17882904 124.239438 10.7436066 124.904918 12.2903981 125.237658 14.1339578 125.237658 16.2742857 125.237658 18.3966276 124.904918 20.2311944 124.239438 21.7779859 123.573958 23.3067916 122.656674 24.4758782 121.487588 25.2852459 120.318501 26.0766276 118.978548 26.4723185 117.467728 26.4723185 115.956909 26.4723185 114.616956 26.0766276 113.447869 25.2852459 112.278782 24.4758782 111.361499 23.3067916 110.696019 21.7779859 110.030539 20.2491803 109.697799 18.4236066 109.697799 16.3012646 109.697799 14.1609368 110.030539 12.3083841 110.696019 10.7436066 111.379485 9.17882904 112.305761 7.99175644 113.474848 7.18238876 114.66192 6.35503513 116.001874 5.94135831 117.494707 5.94135831zM117.494707 24.0711944C118.933583 24.0711944 120.030726 23.4506792 120.786136 22.2096487 121.541546 20.9506323 121.919251 18.972178 121.919251 16.2742857 121.919251 10.9684309 120.43541 8.31550351 117.467728 8.31550351 116.046838 8.31550351 114.949696 8.96299766 114.1763 10.2579859 113.402904 11.5529742 113.016206 13.5584075 113.016206 16.2742857 113.016206 18.954192 113.402904 20.9236534 114.1763 22.1826698 114.949696 23.4416862 116.055831 24.0711944 117.494707 24.0711944zM127.270445 1.20206089C127.270445.834323185 127.465667.650491803 127.856487.650491803L147.230351.650491803C147.620796.650491803 147.816393.834323185 147.816393 1.20206089L147.816393 3.89096019C147.816393 4.21268384 147.632412 4.37358314 147.264824 4.37358314L140.645995 4.37358314C140.508103 4.37358314 140.404684 4.39655269 140.335738 4.44252927 140.289649 4.48846838 140.266792 4.58042155 140.266792 4.71831382L140.266792 25.643466C140.266792 26.0342857 140.094426 26.2295082 139.749696 26.2295082L135.6474 26.2295082C135.325527 26.2295082 135.164778 26.0455269 135.164778 25.6779391L135.164778 4.78725995C135.164778 4.62636066 135.130304 4.52294145 135.061358 4.47700234 135.015269 4.40805621 134.923466 4.37358314 134.785574 4.37358314L127.856487 4.37358314C127.649649 4.37358314 127.500141 4.33911007 127.408337 4.27016393 127.316159 4.2012178 127.270445 4.07479157 127.270445 3.89096019L127.270445 1.20206089zM157.755129 24.3334895C156.146511 25.8274473 154.262108 26.5742389 152.101546 26.5742389 150.355035 26.5742389 148.964496 26.1144731 147.930304 25.1953162 146.919344 24.2530398 146.413489 23.0349789 146.413489 21.541171 146.413489 19.6336487 147.264075 18.1168337 148.964496 16.990726 150.665293 15.8645808 153.043934 15.2440656 156.100422 15.1291803L157.824075 15.0257611C158.192037 14.9797845 158.375644 14.8074192 158.375644 14.5086651L158.375644 13.7157845C158.375644 12.7045621 158.065386 11.923185 157.444871 11.3716159 156.847588 10.7970398 156.020234 10.5097892 154.96281 10.5097892 153.2163 10.5097892 151.87185 11.2681967 150.929461 12.7850117 150.860515 12.8769274 150.791569 12.957377 150.722623 13.0263232 150.676909 13.0722623 150.607963 13.0952693 150.515785 13.0952693 150.401124 13.0952693 150.308946 13.0837658 150.24 13.0607963L147.344262 12.3368618C147.160656 12.2908852 147.068478 12.187466 147.068478 12.0266042 147.068478 11.9116815 147.114567 11.7622857 147.20637 11.5784543 147.804028 10.2914473 148.78089 9.31469789 150.136581 8.64824356 151.515504 7.9587822 153.193443 7.61405152 155.169649 7.61405152 157.743888 7.61405152 159.62829 8.11964403 160.823232 9.13086651 162.041405 10.1420515 162.650304 11.5669508 162.650304 13.4055269L162.650304 25.5400468C162.650304 25.7929742 162.60459 25.9765808 162.512412 26.0916159 162.443466 26.1834192 162.294333 26.2295082 162.064262 26.2295082L159.134052 26.2295082C158.927213 26.2295082 158.77808 26.1605621 158.685902 26.0226698 158.594098 25.8847775 158.525152 25.6779391 158.479063 25.4021546L158.44459 24.3679625C158.421733 24.1611241 158.341171 24.0577049 158.203279 24.0577049 158.134333 24.0577049 157.985199 24.1496206 157.755129 24.3334895zM158.375644 17.8870258C158.375644 17.6801874 158.32993 17.5307916 158.237752 17.4388759 158.168806 17.3469227 158.042529 17.3009836 157.858548 17.3009836L156.445152 17.4044028C154.836534 17.5192881 153.492084 17.8870258 152.411803 18.507541 151.354754 19.1050492 150.826042 19.9324028 150.826042 20.9896019 150.826042 21.7709789 151.101827 22.3914941 151.653396 22.8511475 152.228197 23.3107635 152.986604 23.5406089 153.928618 23.5406089 155.123934 23.5406089 156.169368 23.1728712 157.065667 22.4374707 157.93911 21.7480094 158.375644 21.0470445 158.375644 20.3346136L158.375644 17.8870258zM182.941827 25.2297892C183.194754 25.5516628 183.32103 25.7929742 183.32103 25.9537237 183.32103 26.1377049 183.125808 26.2295082 182.734988 26.2295082L179.011897 26.2295082C178.552131 26.2295082 178.219016 26.08 178.012178 25.7813583L174.013302 20.1622482C173.852553 19.9324028 173.725902 19.8175176 173.634098 19.8175176 173.542295 19.8175176 173.415644 19.9324028 173.254895 20.1622482L169.1526 25.7813583C168.945761 26.08 168.612646 26.2295082 168.152881 26.2295082L165.739766 26.2295082C165.257143 26.2295082 165.015831 26.08 165.015831 25.7813583 165.015831 25.643466 165.142108 25.3906511 165.395035 25.0229508L171.255457 17.507822C171.393349 17.3239532 171.462295 17.1860609 171.462295 17.0941452 171.462295 16.9562529 171.381733 16.7723841 171.220984 16.5425761L165.498454 8.78613583C165.406651 8.69418267 165.360562 8.56779391 165.360562 8.40693208 165.360562 8.26903981 165.406651 8.16562061 165.498454 8.09667447 165.613489 8.00472131 165.762623 7.9587822 165.946604 7.9587822L169.49733 7.9587822C169.750258 7.9587822 169.933864 7.99325527 170.048899 8.06220141 170.186792 8.13114754 170.324684 8.24603279 170.462576 8.40693208L174.151194 13.5778923C174.26623 13.7157845 174.358033 13.7847307 174.426979 13.7847307 174.518782 13.7847307 174.61096 13.7157845 174.702763 13.5778923L178.253489 8.40693208C178.368525 8.24603279 178.494801 8.13114754 178.632693 8.06220141 178.770585 7.99325527 178.965808 7.9587822 179.218735 7.9587822L181.873162 7.9587822C182.217892 7.9587822 182.390258 8.06220141 182.390258 8.26903981 182.390258 8.3609555 182.332927 8.48734426 182.217892 8.64824356L176.840094 15.8875878C176.702201 16.0484496 176.633255 16.1978454 176.633255 16.3357377 176.633255 16.4276534 176.713817 16.6000187 176.874567 16.8528337L182.941827 25.2297892zM193.290117 1.23653396C193.290117.845826698 193.462482.650491803 193.807213.650491803L197.909508.650491803C198.231007.650491803 198.392131.834323185 198.392131 1.20206089L198.392131 22.0237939C198.392131 22.1846557 198.414988 22.2995785 198.461077 22.3685246 198.530023 22.4144637 198.633443 22.4374707 198.771335 22.4374707L210.078501 22.4374707C210.446089 22.4374707 210.63007 22.5983326 210.63007 22.9200937L210.63007 25.7124122C210.63007 25.8503044 210.583981 25.9765808 210.492178 26.0916159 210.4 26.1834192 210.250867 26.2295082 210.044028 26.2295082L193.945105 26.2295082C193.692178 26.2295082 193.519813 26.1834192 193.428009 26.0916159 193.335831 25.9765808 193.290117 25.8158314 193.290117 25.608993L193.290117 1.23653396zM218.287963 4.58042155C218.287963 4.85620609 218.219016 5.0630445 218.081124 5.20093677 217.966089 5.31582201 217.759251 5.37330211 217.460609 5.37330211L214.32356 5.37330211C214.070632 5.37330211 213.898267 5.31582201 213.806464 5.20093677 213.714286 5.08601405 213.668571 4.91364871 213.668571 4.68384075L213.668571 1.30548009C213.668571.868796253 213.852178.650491803 214.220141.650491803L217.770867.650491803C217.931616.650491803 218.057892.707934426 218.15007.822857143 218.241874.914772834 218.287963 1.05266511 218.287963 1.23653396L218.287963 4.58042155zM218.219016 25.4711007C218.219016 25.7468852 218.15007 25.9421077 218.012178 26.0571429 217.897143 26.172178 217.690304 26.2295082 217.391663 26.2295082L214.392506 26.2295082C214.139578 26.2295082 213.967213 26.1834192 213.87541 26.0916159 213.783232 25.9998126 213.737518 25.8386885 213.737518 25.608993L213.737518 8.54482436C213.737518 8.1541171 213.909883 7.9587822 214.254614 7.9587822L217.736393 7.9587822C218.057892 7.9587822 218.219016 8.14261358 218.219016 8.51035129L218.219016 25.4711007zM225.936112 18.507541C225.936112 19.4497799 226.154192 20.3001405 226.591101 21.058548 227.027635 21.7939485 227.625293 22.3799906 228.3837 22.8166745 229.164965 23.2303513 230.015176 23.4371897 230.934707 23.4371897 231.876721 23.4371897 232.727307 23.2418173 233.485714 22.8511475 234.266979 22.4374707 235.002529 21.805452 235.691991 20.9551288 235.806651 20.8402061 235.898829 20.7827635 235.967775 20.7827635 236.036721 20.7827635 236.140141 20.8172365 236.278033 20.8861827L238.38089 21.8169555C238.541639 21.8859016 238.622201 21.9893208 238.622201 22.1272131 238.622201 22.1961593 238.576112 22.2995785 238.484309 22.4374707 237.450117 23.9312787 236.30089 24.9999438 235.037002 25.643466 233.795972 26.2639813 232.255925 26.5742389 230.417611 26.5742389 228.670726 26.5742389 227.096581 26.1834192 225.694801 25.4021546 224.315878 24.62074 223.235597 23.5291054 222.454333 22.1272131 221.672693 20.7252834 221.282248 19.1280562 221.282248 17.3354567 221.282248 15.4049649 221.684309 13.704281 222.488806 12.2334426 223.292927 10.7625667 224.384824 9.6249555 225.763747 8.8206089 227.14267 8.01622482 228.670726 7.61405152 230.348665 7.61405152 232.072319 7.61405152 233.589133 7.99325527 234.89911 8.75166276 236.231944 9.51007026 237.25452 10.6132084 237.967213 12.0610773 238.702389 13.4859391 239.070351 15.186623 239.070351 17.1630913L239.070351 17.3009836C239.070351 17.5307916 239.035878 17.6916534 238.966932 17.7836066 238.897986 17.8755222 238.748478 17.9329649 238.518782 17.9559719L226.315316 17.9559719C226.062389 17.9559719 225.936112 18.1398033 225.936112 18.507541zM234.10623 15.4049649C234.335925 15.4049649 234.485433 15.3819578 234.554379 15.3360187 234.646183 15.2670726 234.692272 15.1291803 234.692272 14.9223419 234.692272 14.186904 234.531148 13.4744731 234.209649 12.7850117 233.887775 12.0955504 233.405152 11.5324778 232.76178 11.0958314 232.141265 10.6591475 231.394098 10.4408431 230.52103 10.4408431 229.164965 10.4408431 228.061827 10.923466 227.211616 11.8887119 226.384262 12.8309508 225.981827 14.0030351 226.005059 15.4049649L234.10623 15.4049649zM242.620328 26.2295082C242.390632 26.2295082 242.229883 26.1834192 242.137705 26.0916159 242.045902 25.9998126 241.999813 25.8386885 241.999813 25.608993L241.999813 8.54482436C241.999813 8.1541171 242.160937 7.9587822 242.482436 7.9587822L245.929742 7.9587822C246.228759 7.9587822 246.377892 8.13114754 246.377892 8.47587822L246.377892 10.2684778C246.377892 10.40637 246.412365 10.4867822 246.481311 10.5097892 246.550258 10.5327588 246.642436 10.4982857 246.757096 10.40637 247.837377 9.46409368 248.837096 8.76312881 249.756253 8.30351288 250.698642 7.84385948 251.709977 7.61405152 252.789883 7.61405152 254.490679 7.61405152 255.823513 8.10814052 256.788759 9.09639344 257.777237 10.0616393 258.271101 11.3486089 258.271101 12.957377L258.271101 25.5055738C258.271101 25.9881967 258.029789 26.2295082 257.547166 26.2295082L254.375644 26.2295082C254.145948 26.2295082 253.985199 26.1834192 253.893021 26.0916159 253.824075 25.9998126 253.789602 25.8386885 253.789602 25.608993L253.789602 13.7502576C253.789602 12.8539578 253.537049 12.1644965 253.031194 11.6818735 252.548571 11.1762436 251.836253 10.923466 250.893864 10.923466 250.089742 10.923466 249.354192 11.1072974 248.687588 11.4750351 248.044215 11.8427354 247.308665 12.440281 246.481311 13.2676347L246.481311 25.5400468C246.481311 25.7929742 246.423981 25.9765808 246.308946 26.0916159 246.194286 26.1834192 245.987447 26.2295082 245.688431 26.2295082L242.620328 26.2295082zM270.779578 17.1106323C270.707635 17.1106323 270.644684 17.1376112 270.590726 17.1915691 270.536768 17.2455269 270.509789 17.3084778 270.509789 17.3804215L270.509789 25.7708665C270.509789 26.0766276 270.338923 26.2295082 269.99719 26.2295082L267.703981 26.2295082C267.542108 26.2295082 267.425199 26.1935363 267.353255 26.1215925 267.281311 26.0496487 267.24534 25.941733 267.24534 25.7978454L267.24534 6.61583138C267.24534 6.34604215 267.371241 6.21114754 267.623044 6.21114754L270.159063 6.21114754C270.392881 6.21114754 270.509789 6.34604215 270.509789 6.61583138L270.509789 14.1969087C270.509789 14.3407963 270.536768 14.439719 270.590726 14.4936768 270.644684 14.5476347 270.734614 14.5746136 270.860515 14.5746136L278.873255 14.5746136C279.089087 14.5746136 279.197002 14.4577049 279.197002 14.2238876L279.197002 6.58885246C279.197002 6.33704918 279.304918 6.21114754 279.520749 6.21114754L282.110726 6.21114754C282.344543 6.21114754 282.461452 6.34604215 282.461452 6.61583138L282.461452 25.7978454C282.461452 25.941733 282.42548 26.0496487 282.353536 26.1215925 282.299578 26.1935363 282.18267 26.2295082 282.00281 26.2295082L279.736581 26.2295082C279.538735 26.2295082 279.394848 26.2025293 279.304918 26.1485714 279.232974 26.0766276 279.197002 25.950726 279.197002 25.7708665L279.197002 17.4074005C279.197002 17.209555 279.09808 17.1106323 278.900234 17.1106323L270.779578 17.1106323zM288.106417 20.0783138C288.106417 20.8876815 288.295269 21.6251054 288.672974 22.2905855 289.068665 22.9380796 289.599251 23.4596721 290.264731 23.855363 290.930211 24.2330679 291.658642 24.4219204 292.450023 24.4219204 293.277377 24.4219204 294.014801 24.2510539 294.662295 23.9093208 295.309789 23.5675878 295.903326 23.0370023 296.442904 22.3175644 296.496862 22.2456206 296.559813 22.2096487 296.631756 22.2096487 296.721686 22.2096487 296.79363 22.2276347 296.847588 22.2636066L298.223513 22.9111007C298.313443 22.9650585 298.358407 23.0370023 298.358407 23.1269321 298.358407 23.1808899 298.331429 23.2528337 298.277471 23.3427635 297.522061 24.4578923 296.658735 25.26726 295.687494 25.7708665 294.716253 26.2564871 293.538173 26.4992974 292.153255 26.4992974 290.804309 26.4992974 289.599251 26.1935363 288.53808 25.5820141 287.476909 24.9704918 286.649555 24.1161593 286.056019 23.0190164 285.462482 21.9038876 285.165714 20.6448712 285.165714 19.2419672 285.165714 17.7311475 285.471475 16.4001874 286.082998 15.2490867 286.69452 14.0979859 287.521874 13.2166745 288.565059 12.6051522 289.62623 11.975644 290.804309 11.6608899 292.099297 11.6608899 293.430258 11.6608899 294.599344 11.9576581 295.606557 12.5511944 296.61377 13.1267447 297.387166 13.9720843 297.926745 15.0872131 298.484309 16.2023419 298.763091 17.5243091 298.763091 19.0531148L298.763091 19.1610304C298.763091 19.322904 298.736112 19.4488056 298.682155 19.5387354 298.646183 19.6106792 298.538267 19.6466511 298.358407 19.6466511L288.376206 19.6466511C288.196347 19.6466511 288.106417 19.7905386 288.106417 20.0783138zM295.471663 17.9469789C295.651522 17.9469789 295.768431 17.92 295.822389 17.8660422 295.894333 17.8120843 295.930304 17.7131616 295.930304 17.569274 295.930304 16.867822 295.777424 16.2113349 295.471663 15.5998126 295.183888 14.9882904 294.752225 14.5026698 294.176674 14.1429508 293.61911 13.7652459 292.95363 13.5763934 292.180234 13.5763934 291.370867 13.5763934 290.660422 13.7832319 290.048899 14.1969087 289.437377 14.5925995 288.960749 15.123185 288.619016 15.7886651 288.295269 16.4361593 288.142389 17.1466042 288.160375 17.92L295.471663 17.9469789zM303.700984 25.7169087C303.700984 25.9147541 303.656019 26.0496487 303.566089 26.1215925 303.494145 26.1935363 303.350258 26.2295082 303.134426 26.2295082L301.299859 26.2295082C301.12 26.2295082 300.994098 26.2025293 300.922155 26.1485714 300.850211 26.0766276 300.814239 25.959719 300.814239 25.7978454L300.868197 6.61583138C300.868197 6.34604215 300.985105 6.21114754 301.218923 6.21114754L303.350258 6.21114754C303.584075 6.21114754 303.700984 6.34604215 303.700984 6.61583138L303.700984 25.7169087zM309.098267 11.9306792C309.404028 11.9306792 309.556909 12.0745667 309.556909 12.3623419L309.556909 13.4145199C309.556909 13.5584075 309.592881 13.6303513 309.664824 13.6303513 309.700796 13.6303513 309.781733 13.5853864 309.907635 13.4954567 310.447213 12.9558782 311.01377 12.5152225 311.607307 12.1734895 312.218829 11.8317564 313.028197 11.6608899 314.03541 11.6608899 315.150539 11.6608899 316.139766 11.9306792 317.003091 12.4702576 317.884403 13.0098361 318.576862 13.8192037 319.080468 14.8983607 319.584075 15.9775176 319.835878 17.3084778 319.835878 18.8912412 319.835878 20.5099766 319.584075 21.8948946 319.080468 23.0459953 318.576862 24.1791101 317.866417 25.0424356 316.949133 25.6359719 316.03185 26.2115222 314.970679 26.4992974 313.765621 26.4992974 312.308759 26.4992974 311.058735 26.0496487 310.01555 25.1503513 309.871663 25.0244496 309.763747 24.9614988 309.691803 24.9614988 309.601874 24.9614988 309.556909 25.0784075 309.556909 25.3122248L309.556909 30.3033255C309.556909 30.5551288 309.448993 30.6810304 309.233162 30.6810304L307.047869 30.6810304C306.814052 30.6810304 306.697143 30.5551288 306.697143 30.3033255L306.697143 12.4162998C306.697143 12.2364403 306.733115 12.1105386 306.805059 12.0385948 306.894988 11.9666511 307.029883 11.9306792 307.209742 11.9306792L309.098267 11.9306792zM309.556909 22.9111007C310.078501 23.4506792 310.600094 23.864356 311.121686 24.1521311 311.661265 24.4219204 312.245808 24.556815 312.875316 24.556815 314.116347 24.556815 315.096581 24.0801874 315.816019 23.1269321 316.553443 22.1556909 316.922155 20.7437939 316.922155 18.8912412 316.922155 17.0926464 316.562436 15.7616862 315.842998 14.8983607 315.12356 14.0350351 314.179297 13.6033724 313.010211 13.6033724 312.362717 13.6033724 311.76918 13.74726 311.229602 14.0350351 310.708009 14.3048244 310.294333 14.6645433 309.988571 15.114192 309.700796 15.5458548 309.556909 15.9775176 309.556909 16.4091803L309.556909 22.9111007z"/>
    <path d="M0,22.0233443 L3.03770679,22.0233443 L3.03770679,48.6032787 L45.5655269,48.6032787 L45.5655269,22.0233443 L48.6032787,22.0233443 L48.6032787,18.2262482 L42.5277752,13.6696581 L42.5277752,0.759419204 L30.3770679,0.759419204 L30.3770679,4.55655269 L24.3016393,0 L0,18.2262482 L0,22.0233443 Z M24.3016393,5.69067916 L7.20955504,19.3603747 L7.20955504,44.4312881 L17.0920843,44.4312881 L17.0920843,30.0024356 L31.5111944,30.0024356 L31.5111944,44.4312881 L41.393911,44.4312881 L41.393911,19.3603747 L24.3016393,5.69067916 Z M27.3393536,34.1740515 L27.3393536,44.8059953 L21.2639251,44.8059953 L21.2639251,34.1740515 L27.3393536,34.1740515 Z M39.4900234,4.17184075 L33.4147447,4.17184075 L33.4147447,6.83484778 L39.4900234,11.3914005 L39.4900234,4.17184075 Z"/>
  </g>
</svg>
