<svg xmlns="http://www.w3.org/2000/svg" width="256" height="256" viewBox="0 0 256 256">
  <g fill="none" fill-rule="evenodd">
    <rect width="245" height="245" x="5.5" y="5.5" fill="#FFF" stroke="#1F2C3D" stroke-width="11" rx="122.5"/>
    <path fill="#1F2C3D" d="M78.629894,76.2371153 C121.815591,54.5971869 215.856555,82.4375728 218,82.4375728 C217.701295,107.505669 218,128.654407 216.293962,148.163913 C213.588415,157.678295 199.099449,157.119151 190.229155,160.256304 C179.997752,168.279822 168.105664,189 121.815591,189 C75.5255185,189 38,178.676237 38,165.94123 C38,158.786789 75.2191472,148.316376 75.6456568,145.887689 C77.6045963,134.732834 77.0812588,126.862236 78.629894,76.2371153 Z M109.650513,83.6588235 C102.463406,83.6588235 95.7091635,84.9901413 89.387785,87.6527769 L89.387785,87.6527769 L89.387785,108.570588 C89.387785,120.123176 95.6503881,130.063809 108.658204,130.773612 C121.666021,131.483415 132.210939,121.542782 132.210939,108.570588 L132.210939,108.570588 L132.210939,85.0823529 C124.357762,84.1333333 116.83762,83.6588235 109.650513,83.6588235 Z" transform="matrix(-1 0 0 1 256 0)"/>
  </g>
</svg>
