<?xml version="1.0" encoding="UTF-8"?>
<svg width="30px" height="30px" viewBox="0 0 30 30" version="1.1" xmlns="http://www.w3.org/2000/svg" xmlns:xlink="http://www.w3.org/1999/xlink">
    <!-- Generator: Sketch 55 (78076) - https://sketchapp.com -->
    <title>instagram</title>
    <desc>Created with Sketch.</desc>
    <g id="Site-Design" stroke="none" stroke-width="1" fill="none" fill-rule="evenodd">
        <g id="temppage_light" transform="translate(-1112.000000, -845.000000)" fill="#333C4E" fill-rule="nonzero">
            <g id="Group-2" transform="translate(1058.000000, 845.000000)">
                <g id="instagram" transform="translate(54.000000, 0.000000)">
                    <path d="M15,2.70117187 C19.0078125,2.70117187 19.4824219,2.71875 21.0585938,2.7890625 C22.5234375,2.85351562 23.3144531,3.09960937 23.8417969,3.3046875 C24.5390625,3.57421875 25.0429688,3.90234375 25.5644531,4.42382812 C26.0917969,4.95117187 26.4140625,5.44921875 26.6894531,6.14648437 C26.8945312,6.67382812 27.140625,7.47070312 27.2050781,8.9296875 C27.2753906,10.5117187 27.2929688,10.9863281 27.2929688,14.9882812 C27.2929688,18.9902344 27.2753906,19.4707031 27.2050781,21.046875 C27.140625,22.5117187 26.8945312,23.3027344 26.6894531,23.8300781 C26.4199219,24.5273437 26.0917969,25.03125 25.5703125,25.5527344 C25.0429688,26.0800781 24.5449219,26.4023437 23.8476562,26.6777344 C23.3203125,26.8828125 22.5234375,27.1289062 21.0644531,27.1933594 C19.4824219,27.2636719 19.0078125,27.28125 15.0058594,27.28125 C11.0039062,27.28125 10.5234375,27.2636719 8.94726562,27.1933594 C7.48242187,27.1289062 6.69140625,26.8828125 6.1640625,26.6777344 C5.46679687,26.4082031 4.96289062,26.0800781 4.44140625,25.5585937 C3.9140625,25.03125 3.59179687,24.5332031 3.31640625,23.8359375 C3.11132812,23.3085937 2.86523437,22.5117187 2.80078125,21.0527344 C2.73046875,19.4707031 2.71289062,18.9960937 2.71289062,14.9941406 C2.71289062,10.9921875 2.73046875,10.5117187 2.80078125,8.93554687 C2.86523437,7.47070312 3.11132812,6.6796875 3.31640625,6.15234375 C3.5859375,5.45507812 3.9140625,4.95117187 4.43554687,4.4296875 C4.96289062,3.90234375 5.4609375,3.58007812 6.15820312,3.3046875 C6.68554687,3.09960937 7.48242187,2.85351562 8.94140625,2.7890625 C10.5175781,2.71875 10.9921875,2.70117187 15,2.70117187 Z M15,-2.84217094e-14 C10.9277344,-2.6730354e-14 10.4179688,0.017578125 8.81835938,0.087890625 C7.22460938,0.158203125 6.12890625,0.416015625 5.1796875,0.78515625 C4.18945312,1.171875 3.3515625,1.68164062 2.51953125,2.51953125 C1.68164063,3.3515625 1.171875,4.18945312 0.78515625,5.17382812 C0.416015625,6.12890625 0.158203125,7.21875 0.087890625,8.8125 C0.017578125,10.4179687 0,10.9277344 0,15 C0,19.0722656 0.017578125,19.5820312 0.087890625,21.1816406 C0.158203125,22.7753906 0.416015625,23.8710937 0.78515625,24.8203125 C1.171875,25.8105469 1.68164063,26.6484375 2.51953125,27.4804687 C3.3515625,28.3125 4.18945312,28.828125 5.17382813,29.2089844 C6.12890625,29.578125 7.21875,29.8359375 8.8125,29.90625 C10.4121094,29.9765625 10.921875,29.9941406 14.9941406,29.9941406 C19.0664062,29.9941406 19.5761719,29.9765625 21.1757812,29.90625 C22.7695312,29.8359375 23.8652344,29.578125 24.8144531,29.2089844 C25.7988281,28.828125 26.6367188,28.3125 27.46875,27.4804687 C28.3007813,26.6484375 28.8164062,25.8105469 29.1972656,24.8261719 C29.5664063,23.8710937 29.8242188,22.78125 29.8945312,21.1875 C29.9648438,19.5878906 29.9824219,19.078125 29.9824219,15.0058594 C29.9824219,10.9335937 29.9648438,10.4238281 29.8945312,8.82421875 C29.8242188,7.23046875 29.5664062,6.13476562 29.1972656,5.18554687 C28.828125,4.18945312 28.3183594,3.3515625 27.4804688,2.51953125 C26.6484375,1.6875 25.8105469,1.171875 24.8261719,0.791015625 C23.8710938,0.421875 22.78125,0.1640625 21.1875,0.09375 C19.5820312,0.017578125 19.0722656,-2.84217094e-14 15,-2.84217094e-14 L15,-2.84217094e-14 Z" id="Shape"></path>
                    <path d="M15,7.29492188 C10.7460938,7.29492188 7.29492188,10.7460938 7.29492188,15 C7.29492188,19.2539062 10.7460938,22.7050781 15,22.7050781 C19.2539062,22.7050781 22.7050781,19.2539062 22.7050781,15 C22.7050781,10.7460938 19.2539062,7.29492188 15,7.29492188 Z M15,19.9980469 C12.2402344,19.9980469 10.0019531,17.7597656 10.0019531,15 C10.0019531,12.2402344 12.2402344,10.0019531 15,10.0019531 C17.7597656,10.0019531 19.9980469,12.2402344 19.9980469,15 C19.9980469,17.7597656 17.7597656,19.9980469 15,19.9980469 Z" id="Shape"></path>
                    <path d="M24.8085938,6.99023438 C24.8085938,7.98369141 24.0032227,8.7890625 23.0097656,8.7890625 C22.0163086,8.7890625 21.2109375,7.98369141 21.2109375,6.99023438 C21.2109375,5.99677734 22.0163086,5.19140625 23.0097656,5.19140625 C24.0032227,5.19140625 24.8085938,5.99677734 24.8085938,6.99023438 Z" id="Path"></path>
                </g>
            </g>
        </g>
    </g>
</svg>