<?xml version="1.0" encoding="UTF-8"?>
<svg width="30px" height="30px" viewBox="0 0 30 30" version="1.1" xmlns="http://www.w3.org/2000/svg" xmlns:xlink="http://www.w3.org/1999/xlink">
    <!-- Generator: Sketch 55 (78076) - https://sketchapp.com -->
    <title>linkedin</title>
    <desc>Created with Sketch.</desc>
    <g id="Site-Design" stroke="none" stroke-width="1" fill="none" fill-rule="evenodd">
        <g id="temppage_light" transform="translate(-1220.000000, -845.000000)" fill="#333C4E" fill-rule="nonzero">
            <g id="Group-2" transform="translate(1058.000000, 845.000000)">
                <g id="linkedin" transform="translate(162.000000, 0.000000)">
                    <path d="M0.0364485471,2.18260146 C0.0364485471,0.997798349 1.02799831,0.0362019244 2.25043527,0.0362019244 L27.7777021,0.0362019244 C29.0005344,0.0362019244 29.9916889,0.997798349 29.9916889,2.18260146 L29.9916889,27.8533356 C29.9916889,29.0385317 29.0005344,29.9993422 27.7777021,29.9993422 L2.25043527,29.9993422 C1.02799831,29.9993422 0.0364485471,29.0385317 0.0364485471,27.8537286 L0.0364485471,2.18220849 L0.0364485471,2.18260146 Z M9.11695693,25.1182677 L9.11695693,11.588327 L4.59251693,11.588327 L4.59251693,25.1182677 L9.11735229,25.1182677 L9.11695693,25.1182677 Z M6.85552764,9.74137025 C8.43299318,9.74137025 9.41505443,8.70235883 9.41505443,7.40398752 C9.38540282,6.0761435 8.43299318,5.06621183 6.8855746,5.06621183 C5.33696996,5.06621183 4.32565246,6.0761435 4.32565246,7.40398752 C4.32565246,8.70235883 5.30731836,9.74137025 6.82587603,9.74137025 L6.85513229,9.74137025 L6.85552764,9.74137025 Z M11.6211341,25.1182677 L16.1451787,25.1182677 L16.1451787,17.5634286 C16.1451787,17.159456 16.1748303,16.7546973 16.2942274,16.4662577 C16.6211858,15.6579194 17.3656389,14.8212873 18.6157507,14.8212873 C20.2525194,14.8212873 20.9076223,16.0618921 20.9076223,17.880948 L20.9076223,25.1182677 L25.4316669,25.1182677 L25.4316669,17.3606563 C25.4316669,13.2050036 23.1998892,11.2712006 20.2232632,11.2712006 C17.7827382,11.2712006 16.7109314,12.6269455 16.1155271,13.5504238 L16.1455741,13.5504238 L16.1455741,11.58872 L11.6215294,11.58872 C11.6804373,12.8580115 11.6211341,25.1186607 11.6211341,25.1186607 L11.6211341,25.1182677 Z" id="Combined-Shape"></path>
                </g>
            </g>
        </g>
    </g>
</svg>