<?xml version="1.0" encoding="UTF-8"?>
<svg width="30px" height="24px" viewBox="0 0 30 24" version="1.1" xmlns="http://www.w3.org/2000/svg" xmlns:xlink="http://www.w3.org/1999/xlink">
    <!-- Generator: Sketch 55 (78076) - https://sketchapp.com -->
    <title>twitter</title>
    <desc>Created with Sketch.</desc>
    <g id="Site-Design" stroke="none" stroke-width="1" fill="none" fill-rule="evenodd">
        <g id="temppage_light" transform="translate(-1166.000000, -848.000000)" fill="#333C4E" fill-rule="nonzero">
            <g id="Group-2" transform="translate(1058.000000, 845.000000)">
                <g id="twitter" transform="translate(108.000000, 3.000000)">
                    <path d="M30,2.83846154 C28.9005848,3.32307692 27.7134503,3.64615385 26.4736842,3.79038462 C27.7426901,3.04038462 28.7134503,1.85192308 29.1754386,0.438461538 C27.9883041,1.13076923 26.6725146,1.63846154 25.2748538,1.90961538 C24.1520468,0.732692308 22.5555556,0 20.7894737,0 C17.3976608,0 14.6491228,2.71153846 14.6491228,6.05769231 C14.6491228,6.53076923 14.7017544,6.99230769 14.8070175,7.43653846 C9.70175439,7.18269231 5.1754386,4.77115385 2.14619883,1.10192308 C1.61988304,1.99615385 1.31578947,3.04038462 1.31578947,4.14807692 C1.31578947,6.24807692 2.39766082,8.10576923 4.04678363,9.19038462 C3.04093567,9.16153846 2.09356725,8.88461538 1.26315789,8.43461538 C1.26315789,8.45769231 1.26315789,8.48653846 1.26315789,8.50961538 C1.26315789,11.4461538 3.38011696,13.8980769 6.19298246,14.4519231 C5.67836257,14.5903846 5.13450292,14.6653846 4.57309942,14.6653846 C4.1754386,14.6653846 3.79532164,14.625 3.41520468,14.5557692 C4.19883041,16.9615385 6.46783626,18.7153846 9.15204678,18.7673077 C7.04678363,20.3942308 4.40350877,21.3634615 1.52046784,21.3634615 C1.02339181,21.3634615 0.538011696,21.3346154 0.0526315789,21.2769231 C2.77777778,23.0019231 6.00584795,24 9.47368421,24 C20.7719298,24 26.9532164,14.7634615 26.9532164,6.75576923 C26.9532164,6.49038462 26.9473684,6.23076923 26.9356725,5.97115385 C28.1345029,5.12307692 29.1754386,4.05576923 30,2.83846154 Z" id="Path"></path>
                </g>
            </g>
        </g>
    </g>
</svg>