<?xml version="1.0" encoding="UTF-8"?>
<svg width="30px" height="30px" viewBox="0 0 30 30" version="1.1" xmlns="http://www.w3.org/2000/svg" xmlns:xlink="http://www.w3.org/1999/xlink">
    <!-- Generator: Sketch 55 (78076) - https://sketchapp.com -->
    <title>website</title>
    <desc>Created with Sketch.</desc>
    <g id="Site-Design" stroke="none" stroke-width="1" fill="none" fill-rule="evenodd">
        <g id="temppage_light" transform="translate(-1058.000000, -845.000000)" fill="#333C4E" fill-rule="nonzero">
            <g id="Group-2" transform="translate(1058.000000, 845.000000)">
                <g id="website">
                    <path d="M15,0 C6.71572266,0 0,6.71572266 0,15 C0,23.2842773 6.71572266,30 15,30 C23.2842773,30 30,23.2842773 30,15 C30,6.71572266 23.2842773,0 15,0 Z M15,28.1250586 C13.1555273,28.1250586 11.4002344,27.7438477 9.80771484,27.0571289 L16.6382227,19.3728516 C16.7907422,19.2012305 16.875,18.9796289 16.875,18.75 L16.875,15.9375 C16.875,15.419707 16.455293,15 15.9375,15 C12.6272461,15 9.13464844,11.5587305 9.10037109,11.5246289 C8.92458984,11.3487891 8.68611328,11.25 8.4375,11.25 L4.6875,11.25 C4.16976563,11.25 3.75,11.6697656 3.75,12.1875 L3.75,17.8125 C3.75,18.1676367 3.950625,18.4922461 4.26826172,18.6510352 L7.5,20.2669336 L7.5,25.7714062 C4.10003906,23.3996484 1.875,19.4599219 1.875,15 C1.875,12.9868945 2.32880859,11.0799023 3.13880859,9.375 L6.5625,9.375 C6.81117188,9.375 7.04958984,9.27621094 7.22542969,9.10042969 L10.9754297,5.35042969 C11.1512109,5.17458984 11.25,4.93617187 11.25,4.6875 L11.25,2.41957031 C12.4383398,2.06583984 13.6968164,1.875 15,1.875 C17.0626758,1.875 19.0137891,2.35136719 20.7504492,3.19921875 C20.629043,3.30181641 20.510918,3.40910156 20.3975391,3.52253906 C19.3350586,4.58496094 18.75,5.99748047 18.75,7.5 C18.75,9.00251953 19.3350586,10.4150391 20.3975391,11.4774609 C21.4649414,12.5448047 22.8941602,13.1258203 24.3711914,13.1257031 C24.4639453,13.1257031 24.5569922,13.1233594 24.6500391,13.1187891 C25.0547461,14.6364258 25.7853516,18.5872266 24.4038281,24.0270117 C24.3908203,24.0781055 24.3834375,24.1291992 24.3791602,24.1800586 C21.9966211,26.614043 18.6750586,28.1250586 15,28.1250586 Z" id="Shape"></path>
                </g>
            </g>
        </g>
    </g>
</svg>